<svg width="68" height="32" viewBox="0 0 68 32" fill="none" xmlns="http://www.w3.org/2000/svg">
<g clip-path="url(#clip0_2846_24345)">
<path d="M53 31.0312C61.2843 31.0312 68 24.3155 68 16.0312C68 7.74698 61.2843 1.03125 53 1.03125C44.7157 1.03125 38 7.74698 38 16.0312C38 24.3155 44.7157 31.0312 53 31.0312Z" fill="#F0F0F0"/>
<path d="M52.3477 16.0303H67.9998C67.9998 14.6764 67.8193 13.3648 67.4831 12.1172H52.3477V16.0303Z" fill="#D80027"/>
<path d="M52.3477 8.20213H65.7982C64.88 6.70377 63.7059 5.37937 62.3371 4.28906H52.3477V8.20213Z" fill="#D80027"/>
<path d="M52.9999 31.0265C56.5301 31.0265 59.7748 29.8063 62.3371 27.7656H43.6626C46.2249 29.8063 49.4696 31.0265 52.9999 31.0265Z" fill="#D80027"/>
<path d="M40.2015 23.8506H65.7983C66.5354 22.6477 67.1071 21.3329 67.4831 19.9375H38.5166C38.8926 21.3329 39.4643 22.6477 40.2015 23.8506Z" fill="#D80027"/>
<path d="M44.9483 3.37371H46.3152L45.0437 4.29744L45.5294 5.79211L44.258 4.86838L42.9866 5.79211L43.4061 4.50088C42.2866 5.4334 41.3054 6.52594 40.4968 7.74328H40.9348L40.1254 8.33127C39.9993 8.54162 39.8784 8.75531 39.7625 8.97217L40.149 10.1617L39.4279 9.63779C39.2487 10.0175 39.0847 10.4058 38.9374 10.8022L39.3632 12.1129H40.9348L39.6633 13.0366L40.149 14.5312L38.8776 13.6075L38.116 14.1609C38.0397 14.7737 38 15.3978 38 16.0312H53C53 7.74703 53 6.77039 53 1.03125C50.0368 1.03125 47.2745 1.89082 44.9483 3.37371ZM45.5294 14.5312L44.258 13.6075L42.9866 14.5312L43.4722 13.0366L42.2008 12.1129H43.7724L44.258 10.6182L44.7436 12.1129H46.3152L45.0437 13.0366L45.5294 14.5312ZM45.0437 8.66701L45.5294 10.1617L44.258 9.23795L42.9866 10.1617L43.4722 8.66701L42.2008 7.74328H43.7724L44.258 6.24861L44.7436 7.74328H46.3152L45.0437 8.66701ZM50.9098 14.5312L49.6384 13.6075L48.367 14.5312L48.8527 13.0366L47.5812 12.1129H49.1528L49.6384 10.6182L50.124 12.1129H51.6956L50.4242 13.0366L50.9098 14.5312ZM50.4242 8.66701L50.9098 10.1617L49.6384 9.23795L48.367 10.1617L48.8527 8.66701L47.5812 7.74328H49.1528L49.6384 6.24861L50.124 7.74328H51.6956L50.4242 8.66701ZM50.4242 4.29744L50.9098 5.79211L49.6384 4.86838L48.367 5.79211L48.8527 4.29744L47.5812 3.37371H49.1528L49.6384 1.87904L50.124 3.37371H51.6956L50.4242 4.29744Z" fill="#0052B4"/>
</g>
<g clip-path="url(#clip1_2846_24345)">
<path d="M15 30.9688C23.2843 30.9688 30 24.253 30 15.9688C30 7.68448 23.2843 0.96875 15 0.96875C6.71573 0.96875 0 7.68448 0 15.9688C0 24.253 6.71573 30.9688 15 30.9688Z" fill="#F0F0F0"/>
<path d="M29.9998 15.9725C29.9998 10.0256 26.5389 4.88719 21.5215 2.46094V29.4841C26.5389 27.0579 29.9998 21.9195 29.9998 15.9725Z" fill="#D80027"/>
<path d="M0 15.9725C0 21.9195 3.46084 27.0579 8.47828 29.4841V2.46094C3.46084 4.88719 0 10.0256 0 15.9725Z" fill="#D80027"/>
<path d="M17.6088 17.928L20.2174 16.6236L18.9131 15.9715V14.6671L16.3044 15.9715L17.6088 13.3628H16.3044L15.0001 11.4062L13.6957 13.3628H12.3914L13.6957 15.9715L11.087 14.6671V15.9715L9.78271 16.6236L12.3914 17.928L11.7392 19.2323H14.3479V21.1888H15.6522V19.2323H18.2609L17.6088 17.928Z" fill="#D80027"/>
</g>
<defs>
<clipPath id="clip0_2846_24345">
<rect width="30" height="30" fill="white" transform="translate(38 1.03125)"/>
</clipPath>
<clipPath id="clip1_2846_24345">
<rect width="30" height="30" fill="white" transform="translate(0 0.96875)"/>
</clipPath>
</defs>
</svg>
