<svg width="68" height="30" viewBox="0 0 68 30" fill="none" xmlns="http://www.w3.org/2000/svg">
<g clip-path="url(#clip0_2846_24332)">
<path d="M15 30C23.2843 30 30 23.2843 30 15C30 6.71573 23.2843 0 15 0C6.71573 0 0 6.71573 0 15C0 23.2843 6.71573 30 15 30Z" fill="white"/>
<path d="M0 14.9966C0 21.4462 4.07062 26.9443 9.78264 29.0637V0.929688C4.07062 3.04902 0 8.54723 0 14.9966Z" fill="#00874F"/>
<path d="M29.9999 14.9966C29.9999 8.54723 25.9293 3.04902 20.2173 0.929688V29.0638C25.9293 26.9443 29.9999 21.4462 29.9999 14.9966Z" fill="#00874F"/>
</g>
<g clip-path="url(#clip1_2846_24332)">
<path d="M53 30C61.2843 30 68 23.2843 68 15C68 6.71573 61.2843 0 53 0C44.7157 0 38 6.71573 38 15C38 23.2843 44.7157 30 53 30Z" fill="#F0F0F0"/>
<path d="M52.3477 14.999H67.9998C67.9998 13.6451 67.8193 12.3336 67.4831 11.0859H52.3477V14.999Z" fill="#D80027"/>
<path d="M52.3477 7.17088H65.7982C64.88 5.67252 63.7059 4.34812 62.3371 3.25781H52.3477V7.17088Z" fill="#D80027"/>
<path d="M52.9999 29.9952C56.5301 29.9952 59.7748 28.7751 62.3371 26.7344H43.6626C46.2249 28.7751 49.4696 29.9952 52.9999 29.9952Z" fill="#D80027"/>
<path d="M40.2015 22.8193H65.7983C66.5354 21.6164 67.1071 20.3016 67.4831 18.9062H38.5166C38.8926 20.3016 39.4643 21.6164 40.2015 22.8193Z" fill="#D80027"/>
<path d="M44.9483 2.34246H46.3152L45.0437 3.26619L45.5294 4.76086L44.258 3.83713L42.9866 4.76086L43.4061 3.46963C42.2866 4.40215 41.3054 5.49469 40.4968 6.71203H40.9348L40.1254 7.30002C39.9993 7.51037 39.8784 7.72406 39.7625 7.94092L40.149 9.13043L39.4279 8.60654C39.2487 8.98629 39.0847 9.37459 38.9374 9.77098L39.3632 11.0816H40.9348L39.6633 12.0053L40.149 13.5L38.8776 12.5763L38.116 13.1296C38.0397 13.7424 38 14.3665 38 15H53C53 6.71578 53 5.73914 53 0C50.0368 0 47.2745 0.85957 44.9483 2.34246ZM45.5294 13.5L44.258 12.5763L42.9866 13.5L43.4722 12.0053L42.2008 11.0816H43.7724L44.258 9.58693L44.7436 11.0816H46.3152L45.0437 12.0053L45.5294 13.5ZM45.0437 7.63576L45.5294 9.13043L44.258 8.2067L42.9866 9.13043L43.4722 7.63576L42.2008 6.71203H43.7724L44.258 5.21736L44.7436 6.71203H46.3152L45.0437 7.63576ZM50.9098 13.5L49.6384 12.5763L48.367 13.5L48.8527 12.0053L47.5812 11.0816H49.1528L49.6384 9.58693L50.124 11.0816H51.6956L50.4242 12.0053L50.9098 13.5ZM50.4242 7.63576L50.9098 9.13043L49.6384 8.2067L48.367 9.13043L48.8527 7.63576L47.5812 6.71203H49.1528L49.6384 5.21736L50.124 6.71203H51.6956L50.4242 7.63576ZM50.4242 3.26619L50.9098 4.76086L49.6384 3.83713L48.367 4.76086L48.8527 3.26619L47.5812 2.34246H49.1528L49.6384 0.847793L50.124 2.34246H51.6956L50.4242 3.26619Z" fill="#0052B4"/>
</g>
<defs>
<clipPath id="clip0_2846_24332">
<rect width="30" height="30" fill="white"/>
</clipPath>
<clipPath id="clip1_2846_24332">
<rect width="30" height="30" fill="white" transform="translate(38)"/>
</clipPath>
</defs>
</svg>
