<svg width="24" height="25" viewBox="0 0 24 25" fill="none" xmlns="http://www.w3.org/2000/svg">
<g clip-path="url(#clip0_10341_35236)">
<path d="M20.9434 20.5023C22.8439 18.3793 24 15.576 24 12.5024C24 9.42867 22.8438 6.62541 20.9434 4.50234L12 3.63281L3.05662 4.50234C1.15617 6.62541 0 9.42867 0 12.5024C0 15.576 1.15613 18.3793 3.05658 20.5023L12 21.3719L20.9434 20.5023Z" fill="#FFDA44"/>
<path d="M3.05469 4.49998H20.9415C18.7442 2.04528 15.5518 0.5 11.9981 0.5C8.44433 0.5 5.25191 2.04528 3.05469 4.49998Z" fill="black"/>
<path d="M0 12.5L12 13.5435L24 12.5C24 11.0973 23.7585 9.75119 23.3162 8.5H0.683812C0.241453 9.75119 0 11.0973 0 12.5H0Z" fill="#D80027"/>
<path d="M0.683812 16.5H23.3163C23.7585 15.2488 24 13.9027 24 12.5H0C0 13.9027 0.241453 15.2488 0.683812 16.5Z" fill="black"/>
<path d="M20.9415 20.5H3.05469C5.25191 22.9548 8.44433 24.5 11.9981 24.5C15.5519 24.5 18.7443 22.9548 20.9415 20.5Z" fill="#D80027"/>
<path d="M16.0048 12.4965C16.0048 14.7082 14.2121 16.5009 12.0004 16.5009C9.78873 16.5009 7.99609 14.7082 7.99609 12.4965C7.99609 10.2848 9.78873 8.49219 12.0004 8.49219C14.2121 8.49219 16.0048 10.2848 16.0048 12.4965Z" fill="#F0F0F0"/>
<path d="M13.4688 12.7017L12.0019 12.066C12.0019 12.066 12.3451 10.9268 12.3634 10.8489C12.3767 10.7919 12.3838 10.7325 12.3838 10.6715C12.3838 10.4553 12.2962 10.2597 12.1546 10.1181L12.5235 9.74922C12.2875 9.5132 11.9614 9.36719 11.6012 9.36719C11.241 9.36719 10.9149 9.51316 10.6789 9.74922L11.0478 10.1181C10.9061 10.2597 10.8185 10.4554 10.8185 10.6715C10.8185 10.7505 10.8305 10.8267 10.8523 10.8986L10.2969 11.454H11.3064C11.3064 11.454 10.889 12.0809 10.6611 12.5958C10.4333 13.1105 10.6643 13.739 11.1909 13.9731L11.4954 14.1084L12.0019 14.5845V15.1062L11.4801 15.6279H12.5236V14.5844L12.9997 14.1083H13.9845C13.9892 14.0985 13.9942 14.089 13.9987 14.0789C14.2326 13.5524 13.9955 12.9357 13.4688 12.7017Z" fill="black"/>
</g>
<defs>
<clipPath id="clip0_10341_35236">
<rect width="24" height="24" fill="white" transform="translate(0 0.5)"/>
</clipPath>
</defs>
</svg>
