<svg width="85" height="51" viewBox="0 0 85 51" fill="none" xmlns="http://www.w3.org/2000/svg">
<g clip-path="url(#clip0_3325_8498)">
<path d="M59.5004 50.9688C73.3075 50.9688 84.5004 39.7759 84.5004 25.9688C84.5004 12.1616 73.3075 0.96875 59.5004 0.96875C45.6932 0.96875 34.5004 12.1616 34.5004 25.9688C34.5004 39.7759 45.6932 50.9688 59.5004 50.9688Z" fill="#F0F0F0"/>
<path d="M34.5004 25.9684C34.5004 36.7176 41.2847 45.8811 50.8048 49.4135V2.52344C41.2847 6.05566 34.5004 15.2193 34.5004 25.9684Z" fill="#3D8054"/>
<path d="M84.5004 25.9684C84.5004 15.2193 77.7161 6.05567 68.196 2.52344V49.4136C77.7161 45.8811 84.5004 36.7176 84.5004 25.9684Z" fill="#3D8054"/>
</g>
<g clip-path="url(#clip1_3325_8498)">
<path d="M25.5 50.9688C39.3071 50.9688 50.5 39.7759 50.5 25.9688C50.5 12.1616 39.3071 0.96875 25.5 0.96875C11.6929 0.96875 0.5 12.1616 0.5 25.9688C0.5 39.7759 11.6929 50.9688 25.5 50.9688Z" fill="white"/>
<path d="M24.4131 25.9671H50.5C50.5 23.7106 50.1992 21.5247 49.6388 19.4453H24.4131V25.9671Z" fill="#D80027"/>
<path d="M24.4131 12.9241H46.8307C45.3003 10.4269 43.3436 8.21953 41.0621 6.40234H24.4131V12.9241Z" fill="#D80027"/>
<path d="M25.5 50.966C31.3837 50.966 36.7916 48.9324 41.0621 45.5312H9.93787C14.2084 48.9324 19.6163 50.966 25.5 50.966Z" fill="#D80027"/>
<path d="M4.16931 39.0101H46.8306C48.0593 37.0053 49.0121 34.8139 49.6387 32.4883H1.36121C1.98787 34.8139 2.9407 37.0053 4.16931 39.0101Z" fill="#D80027"/>
<path d="M12.0805 4.87285H14.3587L12.2396 6.4124L13.049 8.90352L10.93 7.36397L8.81094 8.90352L9.51016 6.75146C7.64434 8.30566 6.00898 10.1266 4.66133 12.1555H5.39131L4.04238 13.1354C3.83223 13.486 3.63066 13.8422 3.4375 14.2036L4.08164 16.1861L2.87988 15.313C2.58115 15.9459 2.30791 16.5931 2.0623 17.2537L2.77197 19.4381H5.39131L3.27217 20.9776L4.08164 23.4688L1.9626 21.9292L0.693262 22.8515C0.566211 23.8728 0.5 24.913 0.5 25.9688H25.5C25.5 12.1617 25.5 10.534 25.5 0.96875C20.5613 0.96875 15.9575 2.40137 12.0805 4.87285ZM13.049 23.4688L10.93 21.9292L8.81094 23.4688L9.62041 20.9776L7.50127 19.4381H10.1206L10.93 16.947L11.7394 19.4381H14.3587L12.2396 20.9776L13.049 23.4688ZM12.2396 13.695L13.049 16.1861L10.93 14.6466L8.81094 16.1861L9.62041 13.695L7.50127 12.1555H10.1206L10.93 9.66436L11.7394 12.1555H14.3587L12.2396 13.695ZM22.0164 23.4688L19.8974 21.9292L17.7783 23.4688L18.5878 20.9776L16.4687 19.4381H19.088L19.8974 16.947L20.7067 19.4381H23.3261L21.2069 20.9776L22.0164 23.4688ZM21.2069 13.695L22.0164 16.1861L19.8974 14.6466L17.7783 16.1861L18.5878 13.695L16.4687 12.1555H19.088L19.8974 9.66436L20.7067 12.1555H23.3261L21.2069 13.695ZM21.2069 6.4124L22.0164 8.90352L19.8974 7.36397L17.7783 8.90352L18.5878 6.4124L16.4687 4.87285H19.088L19.8974 2.38174L20.7067 4.87285H23.3261L21.2069 6.4124Z" fill="#0052B4"/>
</g>
<defs>
<clipPath id="clip0_3325_8498">
<rect width="50" height="50" fill="white" transform="translate(34.5004 0.96875)"/>
</clipPath>
<clipPath id="clip1_3325_8498">
<rect width="50" height="50" fill="white" transform="translate(0.5 0.96875)"/>
</clipPath>
</defs>
</svg>
