<svg width="32" height="32" viewBox="0 0 32 32" fill="none" xmlns="http://www.w3.org/2000/svg">
<circle cx="16" cy="16" r="16" fill="#009739"/>
<path d="M6.14014 19.9992L8.78014 16.0992L8.79014 16.2792L6.37014 12.6992H7.71014L9.45014 15.3292H9.64014L11.4001 12.6992H12.6901L10.2201 16.3092L10.2001 16.1392L12.9001 19.9992H11.5501L9.55014 17.0892H9.36014L7.43014 19.9992H6.14014Z" fill="white"/>
<path d="M13.2614 19.9992L15.8214 12.6992H17.8114L20.4514 19.9992H19.2114L16.9014 13.4992L17.3914 13.7292H16.1814L16.7014 13.4992L14.4614 19.9992H13.2614ZM14.9214 17.9392L15.3014 16.8992H18.3614L18.7514 17.9392H14.9214Z" fill="white"/>
<path d="M21.6579 19.9992V12.6992H22.8579V19.9992H21.6579ZM22.6579 16.8492V15.8092H25.6879V16.8492H22.6579ZM22.6579 13.7392V12.6992H25.8379V13.7392H22.6579Z" fill="white"/>
</svg>
