<svg width="27" height="30" viewBox="0 0 27 30" fill="none" xmlns="http://www.w3.org/2000/svg">
<path fill-rule="evenodd" clip-rule="evenodd" d="M12 5C18.6274 5 24 10.3769 24 17.0097C24 23.6424 18.6274 29.0193 12 29.0193C5.37257 29.0193 0 23.6424 0 17.0097C0 10.3769 5.37257 5 12 5Z" fill="#2775CA"/>
<path fill-rule="evenodd" clip-rule="evenodd" d="M14.7419 8.55466C14.4712 8.46815 14.25 8.62889 14.25 8.91322L14.25 9.61247C14.25 9.8031 14.3935 10.0201 14.5724 10.0857C17.4446 11.1385 19.5 13.9015 19.5 17.1363C19.5 20.3711 17.4446 23.134 14.5724 24.1869C14.3762 24.2588 14.25 24.4511 14.25 24.6601L14.25 25.3593C14.25 25.6437 14.4712 25.8044 14.7419 25.7179C18.3716 24.5572 20.9999 21.154 20.9999 17.1363C20.9999 13.1186 18.3716 9.71532 14.7419 8.55466Z" fill="white"/>
<path fill-rule="evenodd" clip-rule="evenodd" d="M9.75003 8.91322C9.75003 8.62889 9.52876 8.46815 9.25817 8.55466C5.62838 9.71532 3 13.1186 3 17.1363C3 21.1541 5.62838 24.5572 9.25817 25.7179C9.52875 25.8044 9.75003 25.6437 9.75003 25.3593L9.75003 24.6601C9.75003 24.4694 9.60645 24.2524 9.42758 24.1869C6.55539 23.134 4.5 20.371 4.5 17.1363C4.5 13.9016 6.55539 11.1385 9.42758 10.0857C9.60645 10.0201 9.75003 9.8031 9.75003 9.61245L9.75003 8.91322Z" fill="white"/>
<path d="M15.0686 19.4776L14.3821 19.1707C14.231 19.1031 14.0528 19.1663 13.9796 19.315C13.6556 19.973 13.1171 20.3924 12.4058 20.3924C11.7618 20.3924 11.2452 20.0768 10.8493 19.439C10.6946 19.1922 10.5717 18.9167 10.478 18.6149L12.3214 18.6149C12.4382 18.6149 12.5451 18.5491 12.5978 18.4447L13.0376 17.8506C13.1416 17.6444 12.992 17.401 12.7613 17.401L10.2706 17.401C10.2634 17.2731 10.259 17.1428 10.259 17.0085C10.2576 16.8754 10.2614 16.745 10.2683 16.6165L12.3214 16.6165C12.4382 16.6165 12.5451 16.5507 12.5978 16.4463L13.0376 15.8522C13.1417 15.646 12.992 15.4026 12.7613 15.4026L10.4758 15.4026C10.8101 14.3118 11.5079 13.5972 12.4058 13.6112C13.09 13.6112 13.6211 13.9861 13.9618 14.6001C14.0382 14.7377 14.21 14.7904 14.3539 14.7269L15.0439 14.422C15.209 14.3491 15.2792 14.1493 15.1918 13.9913C14.5548 12.84 13.6262 12.2617 12.4058 12.2617C11.2922 12.2617 10.3999 12.7048 9.7223 13.5844C9.32629 14.1024 9.05062 14.7102 8.88702 15.4026L7.8847 15.4026C7.76785 15.4026 7.66096 15.4684 7.60829 15.5728L7.16842 16.1669C7.0644 16.373 7.21409 16.6165 7.44483 16.6165L8.72141 16.6165C8.71524 16.7455 8.70935 16.8748 8.70935 17.0085C8.70772 17.1411 8.71084 17.2716 8.71645 17.401L7.8847 17.401C7.76785 17.401 7.66096 17.4668 7.60829 17.5711L7.16842 18.1652C7.0644 18.3714 7.21409 18.6149 7.44483 18.6149L8.88411 18.6149C9.33929 20.4978 10.6497 21.7818 12.4058 21.7553C13.6526 21.7553 14.5923 21.135 15.2196 19.8998C15.2995 19.7426 15.2295 19.5496 15.0686 19.4776Z" fill="white"/>
<circle cx="20" cy="7" r="7" fill="#0C0E10"/>
<path d="M22.8119 4.06115L21.7808 4.58688L16.8014 7.12491C16.7851 6.9962 16.7771 6.86654 16.7776 6.73674C16.7802 6.21885 16.9175 5.71022 17.176 5.26123C17.4344 4.81224 17.805 4.43848 18.251 4.17697C18.697 3.91545 19.2029 3.77526 19.7187 3.77028C20.2345 3.76529 20.7422 3.89569 21.1915 4.14855L21.7818 3.84761L21.8698 3.80265C21.3317 3.40897 20.6951 3.17269 20.0306 3.11993C19.366 3.06716 18.6993 3.19996 18.1041 3.50365C17.5089 3.80734 17.0084 4.2701 16.658 4.84077C16.3076 5.41145 16.1208 6.06782 16.1183 6.73734C16.118 6.82981 16.1211 6.92192 16.1278 7.01367C16.1371 7.1436 16.1079 7.2735 16.0439 7.38704C15.9799 7.50057 15.8839 7.59267 15.7681 7.65174L15.4568 7.81054L15.454 8.55236L16.3704 8.085L16.6671 7.93344L16.9595 7.78442L22.2088 5.10789L22.7986 4.80731L24.0178 4.1855L24.0206 3.44404L22.8119 4.06115Z" fill="white"/>
<path d="M24.018 4.92429L17.2578 8.36876L16.668 8.67006L15.4542 9.28898L15.4514 10.0301L16.6568 9.4155L17.688 8.88977L22.6724 6.34811C22.6888 6.47767 22.6967 6.60818 22.6963 6.73883C22.694 7.25732 22.5567 7.76661 22.298 8.21614C22.0393 8.66568 21.6682 9.03981 21.2216 9.30141C20.775 9.56301 20.2683 9.70297 19.7519 9.70739C19.2356 9.71182 18.7274 9.58057 18.278 9.32665L18.2417 9.34587L17.6019 9.67219C18.1399 10.0659 18.7763 10.3022 19.4408 10.3551C20.1052 10.408 20.7719 10.2754 21.3671 9.97191C21.9622 9.66842 22.4628 9.20589 22.8134 8.63542C23.164 8.06495 23.351 7.40874 23.3537 6.73931C23.3541 6.646 23.3508 6.55268 23.3443 6.46044C23.335 6.33056 23.3641 6.2007 23.4281 6.08718C23.492 5.97366 23.5879 5.88153 23.7036 5.82238L24.0152 5.66357L24.018 4.92429Z" fill="white"/>
</svg>
