<svg width="24" height="30" viewBox="0 0 24 30" fill="none" xmlns="http://www.w3.org/2000/svg">
<g clip-path="url(#clip0_4861_16083)">
<path d="M12 30C18.6274 30 24 24.6274 24 18C24 11.3726 18.6274 6 12 6C5.37258 6 0 11.3726 0 18C0 24.6274 5.37258 30 12 30Z" fill="#F0F0F0"/>
<path d="M11.4775 18.0015H23.9993C23.9993 16.9185 23.8549 15.8692 23.5859 14.8711H11.4775V18.0015Z" fill="#D80027"/>
<path d="M11.4775 11.7398H22.238C21.5034 10.5411 20.5642 9.48162 19.4691 8.60938H11.4775V11.7398Z" fill="#D80027"/>
<path d="M12.0001 29.9993C14.8243 29.9993 17.4201 29.0232 19.4699 27.3906H4.53027C6.58012 29.0232 9.17591 29.9993 12.0001 29.9993Z" fill="#D80027"/>
<path d="M1.76098 24.2633H22.2384C22.8281 23.301 23.2855 22.2491 23.5863 21.1328H0.413086C0.713883 22.2491 1.17124 23.301 1.76098 24.2633V24.2633Z" fill="#D80027"/>
<path d="M5.55862 7.87397H6.65217L5.63498 8.61295L6.02353 9.80869L5.00639 9.0697L3.98925 9.80869L4.32487 8.7757C3.42928 9.52172 2.64431 10.3957 1.99744 11.3696H2.34783L1.70034 11.84C1.59947 12.0083 1.50272 12.1792 1.41 12.3527L1.71919 13.3043L1.14234 12.8852C0.998953 13.189 0.867797 13.4997 0.749906 13.8168L1.09055 14.8653H2.34783L1.33064 15.6043L1.71919 16.8L0.702047 16.061L0.0927656 16.5037C0.0317812 16.9939 0 17.4932 0 18H12C12 11.3726 12 10.5913 12 6C9.62944 6 7.41961 6.68766 5.55862 7.87397V7.87397ZM6.02353 16.8L5.00639 16.061L3.98925 16.8L4.3778 15.6043L3.36061 14.8653H4.61789L5.00639 13.6695L5.39489 14.8653H6.65217L5.63498 15.6043L6.02353 16.8ZM5.63498 12.1086L6.02353 13.3043L5.00639 12.5654L3.98925 13.3043L4.3778 12.1086L3.36061 11.3696H4.61789L5.00639 10.1739L5.39489 11.3696H6.65217L5.63498 12.1086ZM10.3279 16.8L9.31073 16.061L8.29359 16.8L8.68214 15.6043L7.66495 14.8653H8.92223L9.31073 13.6695L9.69923 14.8653H10.9565L9.93933 15.6043L10.3279 16.8ZM9.93933 12.1086L10.3279 13.3043L9.31073 12.5654L8.29359 13.3043L8.68214 12.1086L7.66495 11.3696H8.92223L9.31073 10.1739L9.69923 11.3696H10.9565L9.93933 12.1086ZM9.93933 8.61295L10.3279 9.80869L9.31073 9.0697L8.29359 9.80869L8.68214 8.61295L7.66495 7.87397H8.92223L9.31073 6.67823L9.69923 7.87397H10.9565L9.93933 8.61295Z" fill="#0052B4"/>
</g>
<path d="M24 17.9999C24.0009 18.9793 23.8818 19.9552 23.6453 20.9067C23.6181 21.0178 23.5889 21.1289 23.5577 21.2387C22.1435 26.2927 17.5022 29.9998 11.999 29.9998C6.62839 29.9998 2.08658 26.4752 0.553639 21.6135C0.516509 21.4966 0.481368 21.3786 0.448216 21.2595C-0.118398 19.2356 -0.148294 17.1036 0.361358 15.0652C0.389206 14.9535 0.418821 14.8424 0.450205 14.7319C1.87308 9.69288 6.50507 6 11.999 6C17.6938 6 22.4617 9.96705 23.691 15.2907C23.7158 15.3977 23.7379 15.5059 23.7573 15.6155C23.9176 16.4006 23.9989 17.1993 24 17.9999V17.9999Z" fill="url(#paint0_linear_4861_16083)"/>
<path d="M11.9998 29.4105C17.3197 29.4105 21.6324 24.4121 21.6324 18.2463C21.6324 12.0804 17.3197 7.08203 11.9998 7.08203C6.67986 7.08203 2.36719 12.0804 2.36719 18.2463C2.36719 24.4121 6.67986 29.4105 11.9998 29.4105Z" fill="url(#paint1_linear_4861_16083)"/>
<path opacity="0.15" d="M23.6433 21.2122C23.6161 21.3256 23.5869 21.4389 23.5558 21.551C23.2945 21.5656 23.0176 21.5731 22.725 21.5735C22.6176 21.5735 22.5075 21.5735 22.3935 21.5696C20.2273 21.5245 16.8902 20.9828 13.2767 18.6615C13.2197 18.6243 13.1626 18.5892 13.1056 18.5534C12.9491 18.6575 12.7927 18.7642 12.6362 18.875C9.13733 21.3627 5.82679 22.0576 3.66528 22.2061C3.29663 22.2313 2.94854 22.2419 2.62365 22.2419C1.94725 22.2441 1.27165 22.1949 0.60271 22.0947C0.564254 21.9767 0.527787 21.8586 0.493309 21.7393C1.53967 21.9065 2.60197 21.951 3.65865 21.8719C5.77374 21.726 9.01467 21.0404 12.4439 18.6025C12.5613 18.5189 12.678 18.438 12.7953 18.3591C10.0828 16.7191 7.04719 15.6863 3.89735 15.3317C2.72301 15.1964 1.53879 15.1685 0.359375 15.2481C0.387223 15.1341 0.416839 15.0207 0.448222 14.908C1.61082 14.837 2.77741 14.8685 3.93448 15.0022C7.18434 15.3675 10.3138 16.4444 13.1003 18.1562C15.7109 16.4599 18.7072 15.4497 21.812 15.219C22.475 15.1699 23.0817 15.1613 23.6154 15.1752C23.6439 15.2859 23.6705 15.398 23.6957 15.51C23.071 15.4908 22.4458 15.5043 21.8226 15.5505C18.8304 15.7762 15.9406 16.7393 13.4113 18.3538C13.4259 18.3638 13.4411 18.373 13.4564 18.3823C16.9957 20.6579 20.2651 21.191 22.3842 21.238C22.8384 21.248 23.2594 21.2367 23.6433 21.2122Z" fill="white"/>
<path fill-rule="evenodd" clip-rule="evenodd" d="M17.2521 24.4481H15.4523L8.69409 14.249V24.4481H6.96484V11.9375H9.27639L11.78 15.7848H15.5228V11.9375H17.2521V15.7848H19.5917V17.0681H17.2521V19.5289H19.592V20.8122H17.2521V24.4481ZM14.2164 19.5289L12.6151 17.0681H15.5228V19.5289H14.2164ZM15.0515 20.8122L15.5228 21.5366V20.8122H15.0515Z" fill="white"/>
<circle cx="17" cy="7" r="7" fill="#0C0E10"/>
<path d="M19.8119 4.06115L18.7808 4.58688L13.8014 7.12491C13.7851 6.9962 13.7771 6.86654 13.7776 6.73674C13.7802 6.21885 13.9175 5.71022 14.176 5.26123C14.4344 4.81224 14.805 4.43848 15.251 4.17697C15.697 3.91545 16.2029 3.77526 16.7187 3.77028C17.2345 3.76529 17.7422 3.89569 18.1915 4.14855L18.7818 3.84761L18.8698 3.80265C18.3317 3.40897 17.6951 3.17269 17.0306 3.11993C16.366 3.06716 15.6993 3.19996 15.1041 3.50365C14.5089 3.80734 14.0084 4.2701 13.658 4.84077C13.3076 5.41145 13.1208 6.06782 13.1183 6.73734C13.118 6.82981 13.1211 6.92192 13.1278 7.01367C13.1371 7.1436 13.1079 7.2735 13.0439 7.38704C12.9799 7.50057 12.8839 7.59267 12.7681 7.65174L12.4568 7.81054L12.454 8.55236L13.3704 8.085L13.6671 7.93344L13.9595 7.78442L19.2088 5.10789L19.7986 4.80731L21.0178 4.1855L21.0206 3.44404L19.8119 4.06115Z" fill="white"/>
<path d="M21.018 4.92429L14.2578 8.36876L13.668 8.67006L12.4542 9.28898L12.4514 10.0301L13.6568 9.4155L14.688 8.88977L19.6724 6.34811C19.6888 6.47767 19.6967 6.60818 19.6963 6.73883C19.694 7.25732 19.5567 7.76661 19.298 8.21614C19.0393 8.66568 18.6682 9.03981 18.2216 9.30141C17.775 9.56301 17.2683 9.70297 16.7519 9.70739C16.2356 9.71182 15.7274 9.58057 15.278 9.32665L15.2417 9.34587L14.6019 9.67219C15.1399 10.0659 15.7763 10.3022 16.4408 10.3551C17.1052 10.408 17.7719 10.2754 18.3671 9.97191C18.9622 9.66842 19.4628 9.20589 19.8134 8.63542C20.164 8.06495 20.351 7.40874 20.3537 6.73931C20.3541 6.646 20.3508 6.55268 20.3443 6.46044C20.335 6.33056 20.3641 6.2007 20.4281 6.08718C20.492 5.97366 20.5879 5.88153 20.7036 5.82238L21.0152 5.66357L21.018 4.92429Z" fill="white"/>
<defs>
<linearGradient id="paint0_linear_4861_16083" x1="11.999" y1="5.5673" x2="11.999" y2="30.3916" gradientUnits="userSpaceOnUse">
<stop stop-color="#105A3F"/>
<stop offset="1" stop-color="#25C173"/>
</linearGradient>
<linearGradient id="paint1_linear_4861_16083" x1="11.9759" y1="6.44883" x2="12.0257" y2="31.1397" gradientUnits="userSpaceOnUse">
<stop offset="0.14" stop-color="#0E483B"/>
<stop offset="1" stop-color="#1DAC66" stop-opacity="0"/>
</linearGradient>
<clipPath id="clip0_4861_16083">
<rect width="24" height="24" fill="white" transform="translate(0 6)"/>
</clipPath>
</defs>
</svg>
