<svg width="42" height="46" viewBox="0 0 42 46" fill="none" xmlns="http://www.w3.org/2000/svg">
<g clip-path="url(#clip0_1643_4361)">
<path d="M19.6238 45.2733C30.1587 45.2733 38.6988 36.7317 38.6988 26.1952C38.6988 15.6587 30.1587 7.11719 19.6238 7.11719C9.08899 7.11719 0.548828 15.6587 0.548828 26.1952C0.548828 36.7317 9.08899 45.2733 19.6238 45.2733Z" fill="#F0F0F0"/>
<path d="M18.791 26.1878H38.6953C38.6953 24.4659 38.4658 22.7978 38.0382 21.2109H18.791V26.1878Z" fill="#D80027"/>
<path d="M18.791 16.2425H35.8956C34.728 14.3368 33.235 12.6524 31.4942 11.2656H18.791V16.2425Z" fill="#D80027"/>
<path d="M19.6219 45.2724C24.1112 45.2724 28.2374 43.7205 31.4958 41.125H7.74805C11.0064 43.7205 15.1327 45.2724 19.6219 45.2724Z" fill="#D80027"/>
<path d="M3.34571 36.1566H35.8963C36.8337 34.6267 37.5607 32.9544 38.0389 31.1797H1.20312C1.68127 32.9544 2.40828 34.6267 3.34571 36.1566V36.1566Z" fill="#D80027"/>
<path d="M9.38472 10.0965H11.123L9.5061 11.2714L10.1237 13.1724L8.5069 11.9975L6.89007 13.1724L7.42358 11.5301C5.99996 12.7161 4.75218 14.1057 3.72392 15.654H4.2809L3.25167 16.4019C3.09132 16.6694 2.93752 16.9412 2.79014 17.217L3.28162 18.7299L2.36468 18.0636C2.13675 18.5466 1.92826 19.0404 1.74087 19.5446L2.28234 21.2115H4.2809L2.66399 22.3864L3.28162 24.2874L1.66479 23.1126L0.696287 23.8164C0.599347 24.5957 0.548828 25.3895 0.548828 26.1952H19.6238C19.6238 15.6588 19.6238 14.4166 19.6238 7.11719C15.8556 7.11719 12.3429 8.21045 9.38472 10.0965V10.0965ZM10.1237 24.2874L8.5069 23.1126L6.89007 24.2874L7.5077 22.3864L5.8908 21.2115H7.88935L8.5069 19.3105L9.12446 21.2115H11.123L9.5061 22.3864L10.1237 24.2874ZM9.5061 16.8289L10.1237 18.7299L8.5069 17.555L6.89007 18.7299L7.5077 16.8289L5.8908 15.654H7.88935L8.5069 13.753L9.12446 15.654H11.123L9.5061 16.8289ZM16.9658 24.2874L15.349 23.1126L13.7322 24.2874L14.3498 22.3864L12.7329 21.2115H14.7315L15.349 19.3105L15.9666 21.2115H17.9651L16.3482 22.3864L16.9658 24.2874ZM16.3482 16.8289L16.9658 18.7299L15.349 17.555L13.7322 18.7299L14.3498 16.8289L12.7329 15.654H14.7315L15.349 13.753L15.9666 15.654H17.9651L16.3482 16.8289ZM16.3482 11.2714L16.9658 13.1724L15.349 11.9975L13.7322 13.1724L14.3498 11.2714L12.7329 10.0965H14.7315L15.349 8.19547L15.9666 10.0965H17.9651L16.3482 11.2714Z" fill="#0052B4"/>
</g>
<path d="M38.6988 26.1951C38.7002 27.7521 38.5109 29.3036 38.1349 30.8163C38.0917 30.993 38.0454 31.1696 37.9958 31.3442C35.7477 39.3792 28.3701 45.273 19.6222 45.273C11.0852 45.273 3.86563 39.6694 1.42888 31.9402C1.36986 31.7542 1.314 31.5666 1.2613 31.3772C0.360625 28.1597 0.313102 24.77 1.12324 21.5294C1.1675 21.3518 1.21458 21.1751 1.26447 20.9995C3.52625 12.9883 10.8892 7.11719 19.6222 7.11719C28.6747 7.11719 36.2536 13.4242 38.2077 21.8878C38.247 22.0579 38.2821 22.2301 38.3131 22.4043C38.5679 23.6525 38.6971 24.9222 38.6988 26.1951V26.1951Z" fill="url(#paint0_linear_1643_4361)"/>
<path d="M19.6204 44.3424C28.0769 44.3424 34.9323 36.3957 34.9323 26.5931C34.9323 16.7904 28.0769 8.84375 19.6204 8.84375C11.1639 8.84375 4.30859 16.7904 4.30859 26.5931C4.30859 36.3957 11.1639 44.3424 19.6204 44.3424Z" fill="url(#paint1_linear_1643_4361)"/>
<path opacity="0.15" d="M38.1308 31.3078C38.0876 31.4881 38.0413 31.6684 37.9917 31.8465C37.5765 31.8697 37.1363 31.8816 36.6711 31.8823C36.5004 31.8823 36.3254 31.8823 36.1441 31.876C32.7009 31.8043 27.3963 30.9431 21.6523 27.2526C21.5616 27.1936 21.471 27.1377 21.3804 27.0808C21.1316 27.2463 20.8829 27.416 20.6342 27.5921C15.0724 31.5471 9.81005 32.6519 6.37416 32.888C5.78816 32.928 5.23483 32.9449 4.71839 32.9449C3.64319 32.9485 2.56928 32.8702 1.50594 32.7109C1.44481 32.5232 1.38685 32.3356 1.33204 32.1459C2.99532 32.4117 4.68394 32.4825 6.36362 32.3567C9.72573 32.1248 14.8775 31.0348 20.3285 27.1588C20.5151 27.026 20.7006 26.8974 20.8871 26.772C16.5753 24.1647 11.75 22.5226 6.74304 21.9588C4.87633 21.7438 2.99392 21.6994 1.11914 21.826C1.16341 21.6447 1.21048 21.4645 1.26037 21.2853C3.10841 21.1723 4.96281 21.2224 6.80206 21.4349C11.968 22.0158 16.9425 23.7279 21.3719 26.4494C25.5216 23.7525 30.2846 22.1464 35.2198 21.7796C36.2738 21.7016 37.2381 21.6879 38.0866 21.7101C38.1319 21.8861 38.1741 22.0642 38.2141 22.2424C37.2212 22.2118 36.2274 22.2333 35.2367 22.3067C30.4803 22.6656 25.8868 24.1968 21.8662 26.7635C21.8894 26.7793 21.9137 26.7941 21.9379 26.8089C27.5639 30.4266 32.7609 31.2741 36.1294 31.349C36.8513 31.3648 37.5206 31.3468 38.1308 31.3078Z" fill="white"/>
<path fill-rule="evenodd" clip-rule="evenodd" d="M27.9735 36.4444H25.1126L14.3699 20.2297V36.4444H11.6211V16.5547H15.2955L19.2777 22.6753H25.2248V16.5547H27.9735V22.6753H31.693V24.7155H27.9735V28.6219H31.6935V30.6622H27.9735V36.4444ZM23.1468 28.6219L20.6052 24.7155H25.2248V28.6219H23.1468ZM24.4742 30.6622L25.2248 31.8157V30.6622H24.4742Z" fill="white"/>
<path d="M31.3372 20.1307C36.8435 20.1307 41.3072 15.6662 41.3072 10.1591C41.3072 4.65193 36.8435 0.1875 31.3372 0.1875C25.8309 0.1875 21.3672 4.65193 21.3672 10.1591C21.3672 15.6662 25.8309 20.1307 31.3372 20.1307Z" fill="#0052FF"/>
<path d="M31.3769 17.0887C35.2411 17.0887 38.3736 13.9611 38.3736 10.103C38.3736 6.24485 35.2411 3.11719 31.3769 3.11719C27.7108 3.11719 24.7031 5.93245 24.4044 9.5158H33.6526V10.6901H24.4043C24.703 14.2735 27.7108 17.0887 31.3769 17.0887Z" fill="white"/>
<defs>
<linearGradient id="paint0_linear_1643_4361" x1="19.6222" y1="6.42927" x2="19.6222" y2="45.8959" gradientUnits="userSpaceOnUse">
<stop stop-color="#105A3F"/>
<stop offset="1" stop-color="#25C173"/>
</linearGradient>
<linearGradient id="paint1_linear_1643_4361" x1="19.5825" y1="7.83706" x2="19.6616" y2="47.0915" gradientUnits="userSpaceOnUse">
<stop offset="0.14" stop-color="#0E483B"/>
<stop offset="1" stop-color="#1DAC66" stop-opacity="0"/>
</linearGradient>
<clipPath id="clip0_1643_4361">
<rect width="38.15" height="38.1561" fill="white" transform="translate(0.548828 7.11719)"/>
</clipPath>
</defs>
</svg>
