<svg width="24" height="32" viewBox="0 0 24 32" fill="none" xmlns="http://www.w3.org/2000/svg">
<g clip-path="url(#clip0_4861_16085)">
<path d="M12 32C18.6274 32 24 26.6274 24 20C24 13.3726 18.6274 8 12 8C5.37258 8 0 13.3726 0 20C0 26.6274 5.37258 32 12 32Z" fill="#F0F0F0"/>
<path d="M11.4775 20.0015H23.9993C23.9993 18.9185 23.8549 17.8692 23.5859 16.8711H11.4775V20.0015Z" fill="#D80027"/>
<path d="M11.4775 13.7398H22.238C21.5034 12.5411 20.5642 11.4816 19.4691 10.6094H11.4775V13.7398Z" fill="#D80027"/>
<path d="M12.0001 31.9993C14.8243 31.9993 17.4201 31.0232 19.4699 29.3906H4.53027C6.58012 31.0232 9.17591 31.9993 12.0001 31.9993Z" fill="#D80027"/>
<path d="M1.76098 26.2633H22.2384C22.8281 25.301 23.2855 24.2491 23.5863 23.1328H0.413086C0.713883 24.2491 1.17124 25.301 1.76098 26.2633V26.2633Z" fill="#D80027"/>
<path d="M5.55862 9.87397H6.65217L5.63498 10.613L6.02353 11.8087L5.00639 11.0697L3.98925 11.8087L4.32487 10.7757C3.42928 11.5217 2.64431 12.3957 1.99744 13.3696H2.34783L1.70034 13.84C1.59947 14.0083 1.50272 14.1792 1.41 14.3527L1.71919 15.3043L1.14234 14.8852C0.998953 15.189 0.867797 15.4997 0.749906 15.8168L1.09055 16.8653H2.34783L1.33064 17.6043L1.71919 18.8L0.702047 18.061L0.0927656 18.5037C0.0317812 18.9939 0 19.4932 0 20H12C12 13.3726 12 12.5913 12 8C9.62944 8 7.41961 8.68766 5.55862 9.87397V9.87397ZM6.02353 18.8L5.00639 18.061L3.98925 18.8L4.3778 17.6043L3.36061 16.8653H4.61789L5.00639 15.6695L5.39489 16.8653H6.65217L5.63498 17.6043L6.02353 18.8ZM5.63498 14.1086L6.02353 15.3043L5.00639 14.5654L3.98925 15.3043L4.3778 14.1086L3.36061 13.3696H4.61789L5.00639 12.1739L5.39489 13.3696H6.65217L5.63498 14.1086ZM10.3279 18.8L9.31073 18.061L8.29359 18.8L8.68214 17.6043L7.66495 16.8653H8.92223L9.31073 15.6695L9.69923 16.8653H10.9565L9.93933 17.6043L10.3279 18.8ZM9.93933 14.1086L10.3279 15.3043L9.31073 14.5654L8.29359 15.3043L8.68214 14.1086L7.66495 13.3696H8.92223L9.31073 12.1739L9.69923 13.3696H10.9565L9.93933 14.1086ZM9.93933 10.613L10.3279 11.8087L9.31073 11.0697L8.29359 11.8087L8.68214 10.613L7.66495 9.87397H8.92223L9.31073 8.67823L9.69923 9.87397H10.9565L9.93933 10.613Z" fill="#0052B4"/>
</g>
<path d="M24 19.9999C24.0009 20.9793 23.8818 21.9552 23.6453 22.9067C23.6181 23.0178 23.5889 23.1289 23.5577 23.2387C22.1435 28.2927 17.5022 31.9998 11.999 31.9998C6.62839 31.9998 2.08658 28.4752 0.553639 23.6135C0.516509 23.4966 0.481368 23.3786 0.448216 23.2595C-0.118398 21.2356 -0.148294 19.1036 0.361358 17.0652C0.389206 16.9535 0.418821 16.8424 0.450205 16.7319C1.87308 11.6929 6.50507 8 11.999 8C17.6938 8 22.4617 11.9671 23.691 17.2907C23.7158 17.3977 23.7379 17.5059 23.7573 17.6155C23.9176 18.4006 23.9989 19.1993 24 19.9999V19.9999Z" fill="url(#paint0_linear_4861_16085)"/>
<path d="M11.9998 31.4105C17.3197 31.4105 21.6324 26.4121 21.6324 20.2463C21.6324 14.0804 17.3197 9.08203 11.9998 9.08203C6.67986 9.08203 2.36719 14.0804 2.36719 20.2463C2.36719 26.4121 6.67986 31.4105 11.9998 31.4105Z" fill="url(#paint1_linear_4861_16085)"/>
<path opacity="0.15" d="M23.6433 23.2122C23.6161 23.3256 23.5869 23.4389 23.5558 23.551C23.2945 23.5656 23.0176 23.5731 22.725 23.5735C22.6176 23.5735 22.5075 23.5735 22.3935 23.5696C20.2273 23.5245 16.8902 22.9828 13.2767 20.6615C13.2197 20.6243 13.1626 20.5892 13.1056 20.5534C12.9491 20.6575 12.7927 20.7642 12.6362 20.875C9.13733 23.3627 5.82679 24.0576 3.66528 24.2061C3.29663 24.2313 2.94854 24.2419 2.62365 24.2419C1.94725 24.2441 1.27165 24.1949 0.60271 24.0947C0.564254 23.9767 0.527787 23.8586 0.493309 23.7393C1.53967 23.9065 2.60197 23.951 3.65865 23.8719C5.77374 23.726 9.01467 23.0404 12.4439 20.6025C12.5613 20.5189 12.678 20.438 12.7953 20.3591C10.0828 18.7191 7.04719 17.6863 3.89735 17.3317C2.72301 17.1964 1.53879 17.1685 0.359375 17.2481C0.387223 17.1341 0.416839 17.0207 0.448222 16.908C1.61082 16.837 2.77741 16.8685 3.93448 17.0022C7.18434 17.3675 10.3138 18.4444 13.1003 20.1562C15.7109 18.4599 18.7072 17.4497 21.812 17.219C22.475 17.1699 23.0817 17.1613 23.6154 17.1752C23.6439 17.2859 23.6705 17.398 23.6957 17.51C23.071 17.4908 22.4458 17.5043 21.8226 17.5505C18.8304 17.7762 15.9406 18.7393 13.4113 20.3538C13.4259 20.3638 13.4411 20.373 13.4564 20.3823C16.9957 22.6579 20.2651 23.191 22.3842 23.238C22.8384 23.248 23.2594 23.2367 23.6433 23.2122Z" fill="white"/>
<path fill-rule="evenodd" clip-rule="evenodd" d="M17.2521 26.4481H15.4523L8.69409 16.249V26.4481H6.96484V13.9375H9.27639L11.78 17.7848H15.5228V13.9375H17.2521V17.7848H19.5917V19.0681H17.2521V21.5289H19.592V22.8122H17.2521V26.4481ZM14.2164 21.5289L12.6151 19.0681H15.5228V21.5289H14.2164ZM15.0515 22.8122L15.5228 23.5366V22.8122H15.0515Z" fill="white"/>
<circle cx="17" cy="7" r="7" fill="#0C0E10"/>
<path d="M20.3851 8.53862L19.3326 9.66713C19.3099 9.69165 19.2823 9.71121 19.2517 9.72459C19.221 9.73798 19.1879 9.74491 19.1545 9.74494H14.1653C14.1415 9.74493 14.1182 9.73798 14.0983 9.72494C14.0784 9.7119 14.0627 9.69334 14.0532 9.67153C14.0437 9.64972 14.0407 9.62561 14.0447 9.60215C14.0487 9.57869 14.0594 9.55689 14.0756 9.53943L15.1269 8.41092C15.1496 8.38641 15.1772 8.36685 15.2079 8.35346C15.2385 8.34008 15.2716 8.33315 15.305 8.33311H20.2943C20.3182 8.33262 20.3419 8.33924 20.3621 8.35214C20.3824 8.36504 20.3984 8.38364 20.4081 8.40561C20.4179 8.42758 20.4208 8.45193 20.4167 8.4756C20.4126 8.49927 20.4016 8.5212 20.3851 8.53862ZM19.3326 6.26556C19.3098 6.24116 19.2822 6.22168 19.2516 6.2083C19.2209 6.19493 19.1879 6.18793 19.1545 6.18776H14.1653C14.1415 6.18777 14.1182 6.19472 14.0983 6.20777C14.0784 6.2208 14.0627 6.23936 14.0532 6.26117C14.0437 6.28298 14.0407 6.30709 14.0447 6.33055C14.0487 6.35402 14.0594 6.37581 14.0756 6.39327L15.1269 7.52237C15.1497 7.54677 15.1773 7.56626 15.2079 7.57964C15.2386 7.59301 15.2716 7.6 15.305 7.60018H20.2943C20.318 7.60005 20.3412 7.59301 20.361 7.57993C20.3809 7.56685 20.3964 7.54828 20.4059 7.5265C20.4153 7.50471 20.4182 7.48064 20.4142 7.45724C20.4102 7.43383 20.3995 7.41209 20.3833 7.39467L19.3326 6.26556ZM14.1653 5.45482H19.1545C19.1879 5.45479 19.221 5.44786 19.2517 5.43447C19.2823 5.42109 19.3099 5.40152 19.3326 5.37701L20.3851 4.2485C20.4016 4.23107 20.4126 4.20914 20.4167 4.18547C20.4208 4.1618 20.4179 4.13745 20.4081 4.11549C20.3984 4.09352 20.3824 4.07491 20.3621 4.06202C20.3419 4.04912 20.3182 4.0425 20.2943 4.04299H15.305C15.2716 4.04303 15.2385 4.04996 15.2079 4.06334C15.1772 4.07673 15.1496 4.09629 15.1269 4.1208L14.0756 5.24931C14.0594 5.26677 14.0487 5.28856 14.0447 5.31203C14.0407 5.33549 14.0437 5.3596 14.0532 5.38141C14.0627 5.40322 14.0784 5.42178 14.0983 5.43481C14.1182 5.44786 14.1415 5.45481 14.1653 5.45482Z" fill="white"/>
<defs>
<linearGradient id="paint0_linear_4861_16085" x1="11.999" y1="7.5673" x2="11.999" y2="32.3916" gradientUnits="userSpaceOnUse">
<stop stop-color="#105A3F"/>
<stop offset="1" stop-color="#25C173"/>
</linearGradient>
<linearGradient id="paint1_linear_4861_16085" x1="11.9759" y1="8.44883" x2="12.0257" y2="33.1397" gradientUnits="userSpaceOnUse">
<stop offset="0.14" stop-color="#0E483B"/>
<stop offset="1" stop-color="#1DAC66" stop-opacity="0"/>
</linearGradient>
<clipPath id="clip0_4861_16085">
<rect width="24" height="24" fill="white" transform="translate(0 8)"/>
</clipPath>
</defs>
</svg>
