<svg width="24" height="29" viewBox="0 0 24 29" fill="none" xmlns="http://www.w3.org/2000/svg">
<g clip-path="url(#clip0_4861_16084)">
<path d="M12 29C18.6274 29 24 23.6274 24 17C24 10.3726 18.6274 5 12 5C5.37258 5 0 10.3726 0 17C0 23.6274 5.37258 29 12 29Z" fill="#F0F0F0"/>
<path d="M11.4775 17.0015H23.9993C23.9993 15.9185 23.8549 14.8692 23.5859 13.8711H11.4775V17.0015Z" fill="#D80027"/>
<path d="M11.4775 10.7398H22.238C21.5034 9.54114 20.5642 8.48162 19.4691 7.60938H11.4775V10.7398Z" fill="#D80027"/>
<path d="M12.0001 28.9993C14.8243 28.9993 17.4201 28.0232 19.4699 26.3906H4.53027C6.58012 28.0232 9.17591 28.9993 12.0001 28.9993Z" fill="#D80027"/>
<path d="M1.76098 23.2633H22.2384C22.8281 22.301 23.2855 21.2491 23.5863 20.1328H0.413086C0.713883 21.2491 1.17124 22.301 1.76098 23.2633V23.2633Z" fill="#D80027"/>
<path d="M5.55862 6.87397H6.65217L5.63498 7.61295L6.02353 8.80869L5.00639 8.0697L3.98925 8.80869L4.32487 7.7757C3.42928 8.52172 2.64431 9.39575 1.99744 10.3696H2.34783L1.70034 10.84C1.59947 11.0083 1.50272 11.1792 1.41 11.3527L1.71919 12.3043L1.14234 11.8852C0.998953 12.189 0.867797 12.4997 0.749906 12.8168L1.09055 13.8653H2.34783L1.33064 14.6043L1.71919 15.8L0.702047 15.061L0.0927656 15.5037C0.0317812 15.9939 0 16.4932 0 17H12C12 10.3726 12 9.59131 12 5C9.62944 5 7.41961 5.68766 5.55862 6.87397V6.87397ZM6.02353 15.8L5.00639 15.061L3.98925 15.8L4.3778 14.6043L3.36061 13.8653H4.61789L5.00639 12.6695L5.39489 13.8653H6.65217L5.63498 14.6043L6.02353 15.8ZM5.63498 11.1086L6.02353 12.3043L5.00639 11.5654L3.98925 12.3043L4.3778 11.1086L3.36061 10.3696H4.61789L5.00639 9.17389L5.39489 10.3696H6.65217L5.63498 11.1086ZM10.3279 15.8L9.31073 15.061L8.29359 15.8L8.68214 14.6043L7.66495 13.8653H8.92223L9.31073 12.6695L9.69923 13.8653H10.9565L9.93933 14.6043L10.3279 15.8ZM9.93933 11.1086L10.3279 12.3043L9.31073 11.5654L8.29359 12.3043L8.68214 11.1086L7.66495 10.3696H8.92223L9.31073 9.17389L9.69923 10.3696H10.9565L9.93933 11.1086ZM9.93933 7.61295L10.3279 8.80869L9.31073 8.0697L8.29359 8.80869L8.68214 7.61295L7.66495 6.87397H8.92223L9.31073 5.67823L9.69923 6.87397H10.9565L9.93933 7.61295Z" fill="#0052B4"/>
</g>
<path d="M24 16.9999C24.0009 17.9793 23.8818 18.9552 23.6453 19.9067C23.6181 20.0178 23.5889 20.1289 23.5577 20.2387C22.1435 25.2927 17.5022 28.9998 11.999 28.9998C6.62839 28.9998 2.08658 25.4752 0.553639 20.6135C0.516509 20.4966 0.481368 20.3786 0.448216 20.2595C-0.118398 18.2356 -0.148294 16.1036 0.361358 14.0652C0.389206 13.9535 0.418821 13.8424 0.450205 13.7319C1.87308 8.69288 6.50507 5 11.999 5C17.6938 5 22.4617 8.96705 23.691 14.2907C23.7158 14.3977 23.7379 14.5059 23.7573 14.6155C23.9176 15.4006 23.9989 16.1993 24 16.9999V16.9999Z" fill="url(#paint0_linear_4861_16084)"/>
<path d="M11.9998 28.4105C17.3197 28.4105 21.6324 23.4121 21.6324 17.2463C21.6324 11.0804 17.3197 6.08203 11.9998 6.08203C6.67986 6.08203 2.36719 11.0804 2.36719 17.2463C2.36719 23.4121 6.67986 28.4105 11.9998 28.4105Z" fill="url(#paint1_linear_4861_16084)"/>
<path opacity="0.15" d="M23.6433 20.2122C23.6161 20.3256 23.5869 20.4389 23.5558 20.551C23.2945 20.5656 23.0176 20.5731 22.725 20.5735C22.6176 20.5735 22.5075 20.5735 22.3935 20.5696C20.2273 20.5245 16.8902 19.9828 13.2767 17.6615C13.2197 17.6243 13.1626 17.5892 13.1056 17.5534C12.9491 17.6575 12.7927 17.7642 12.6362 17.875C9.13733 20.3627 5.82679 21.0576 3.66528 21.2061C3.29663 21.2313 2.94854 21.2419 2.62365 21.2419C1.94725 21.2441 1.27165 21.1949 0.60271 21.0947C0.564254 20.9767 0.527787 20.8586 0.493309 20.7393C1.53967 20.9065 2.60197 20.951 3.65865 20.8719C5.77374 20.726 9.01467 20.0404 12.4439 17.6025C12.5613 17.5189 12.678 17.438 12.7953 17.3591C10.0828 15.7191 7.04719 14.6863 3.89735 14.3317C2.72301 14.1964 1.53879 14.1685 0.359375 14.2481C0.387223 14.1341 0.416839 14.0207 0.448222 13.908C1.61082 13.837 2.77741 13.8685 3.93448 14.0022C7.18434 14.3675 10.3138 15.4444 13.1003 17.1562C15.7109 15.4599 18.7072 14.4497 21.812 14.219C22.475 14.1699 23.0817 14.1613 23.6154 14.1752C23.6439 14.2859 23.6705 14.398 23.6957 14.51C23.071 14.4908 22.4458 14.5043 21.8226 14.5505C18.8304 14.7762 15.9406 15.7393 13.4113 17.3538C13.4259 17.3638 13.4411 17.373 13.4564 17.3823C16.9957 19.6579 20.2651 20.191 22.3842 20.238C22.8384 20.248 23.2594 20.2367 23.6433 20.2122Z" fill="white"/>
<path fill-rule="evenodd" clip-rule="evenodd" d="M17.2521 23.4481H15.4523L8.69409 13.249V23.4481H6.96484V10.9375H9.27639L11.78 14.7848H15.5228V10.9375H17.2521V14.7848H19.5917V16.0681H17.2521V18.5289H19.592V19.8122H17.2521V23.4481ZM14.2164 18.5289L12.6151 16.0681H15.5228V18.5289H14.2164ZM15.0515 19.8122L15.5228 20.5366V19.8122H15.0515Z" fill="white"/>
<circle cx="17" cy="7" r="7" fill="#8247E5"/>
<path d="M19.1203 8.58808L21.1561 7.41257C21.264 7.35012 21.3307 7.23433 21.3307 7.11005V4.75901C21.3307 4.63473 21.264 4.51894 21.1561 4.4565L19.1203 3.28098C19.0124 3.21854 18.8784 3.21914 18.7711 3.28098L16.7353 4.4565C16.6274 4.51894 16.5607 4.63473 16.5607 4.75901V8.96032L15.133 9.78421L13.7053 8.96032V7.31193L15.133 6.48804L16.0745 7.03184V5.92604L15.3076 5.48288C15.2549 5.45256 15.1943 5.43619 15.133 5.43619C15.0718 5.43619 15.0112 5.45256 14.9584 5.48288L12.9226 6.65839C12.8147 6.72084 12.748 6.83663 12.748 6.96091V9.31194C12.748 9.43622 12.8147 9.55202 12.9226 9.61446L14.9584 10.79C15.0663 10.8518 15.1997 10.8518 15.3076 10.79L17.3434 9.61446C17.4513 9.55202 17.518 9.43622 17.518 9.31194V5.11003L17.5435 5.09548L18.9451 4.28614L20.3728 5.11003V6.75842L18.9451 7.58231L18.0048 7.03972V8.14552L18.7705 8.58747C18.8784 8.64931 19.0124 8.64931 19.1197 8.58747L19.1203 8.58808Z" fill="white"/>
<defs>
<linearGradient id="paint0_linear_4861_16084" x1="11.999" y1="4.5673" x2="11.999" y2="29.3916" gradientUnits="userSpaceOnUse">
<stop stop-color="#105A3F"/>
<stop offset="1" stop-color="#25C173"/>
</linearGradient>
<linearGradient id="paint1_linear_4861_16084" x1="11.9759" y1="5.44883" x2="12.0257" y2="30.1397" gradientUnits="userSpaceOnUse">
<stop offset="0.14" stop-color="#0E483B"/>
<stop offset="1" stop-color="#1DAC66" stop-opacity="0"/>
</linearGradient>
<clipPath id="clip0_4861_16084">
<rect width="24" height="24" fill="white" transform="translate(0 5)"/>
</clipPath>
</defs>
</svg>
