<svg width="45" height="45" viewBox="0 0 45 45" fill="none" xmlns="http://www.w3.org/2000/svg">
<mask id="mask0_4700_39912" style="mask-type:alpha" maskUnits="userSpaceOnUse" x="0" y="0" width="45" height="45">
<rect width="45" height="45" fill="#D9D9D9"/>
</mask>
<g mask="url(#mask0_4700_39912)">
<circle cx="22.5002" cy="22.4978" r="10.9196" fill="white"/>
<path d="M23.7656 22.5L18 28.2656L20.625 30.9375L29.0625 22.5L20.625 14.0625L18 16.7344L23.7656 22.5ZM22.5 41.25C19.9062 41.25 17.4688 40.7578 15.1875 39.7734C12.9062 38.7891 10.9219 37.4531 9.23438 35.7656C7.54687 34.0781 6.21094 32.0938 5.22656 29.8125C4.24219 27.5313 3.75 25.0938 3.75 22.5C3.75 19.9062 4.24219 17.4688 5.22656 15.1875C6.21094 12.9062 7.54687 10.9219 9.23438 9.23438C10.9219 7.54687 12.9062 6.21094 15.1875 5.22656C17.4688 4.24219 19.9062 3.75 22.5 3.75C25.0938 3.75 27.5313 4.24219 29.8125 5.22656C32.0938 6.21094 34.0781 7.54687 35.7656 9.23438C37.4531 10.9219 38.7891 12.9062 39.7734 15.1875C40.7578 17.4688 41.25 19.9062 41.25 22.5C41.25 25.0938 40.7578 27.5313 39.7734 29.8125C38.7891 32.0938 37.4531 34.0781 35.7656 35.7656C34.0781 37.4531 32.0938 38.7891 29.8125 39.7734C27.5313 40.7578 25.0938 41.25 22.5 41.25Z" fill="#0038FF"/>
</g>
</svg>
