<svg width="27" height="30" viewBox="0 0 27 30" fill="none" xmlns="http://www.w3.org/2000/svg">
<g clip-path="url(#clip0_4861_16087)">
<path d="M12 30C18.65 30 24 24.65 24 18C24 11.35 18.65 6 12 6C5.34996 6 0 11.35 0 18C0 24.65 5.34996 30 12 30Z" fill="#2775CA"/>
<path d="M15.2996 19.8977C15.2996 18.1477 14.2496 17.5477 12.1496 17.2977C10.6496 17.0977 10.3496 16.6977 10.3496 15.9977C10.3496 15.2976 10.8496 14.8477 11.8496 14.8477C12.7496 14.8477 13.2496 15.1477 13.4996 15.8977C13.5496 16.0477 13.6996 16.1477 13.8496 16.1477H14.6495C14.8496 16.1477 14.9996 15.9977 14.9996 15.7977V15.7477C14.7995 14.6477 13.8995 13.7977 12.7496 13.6977V12.4977C12.7496 12.2977 12.5996 12.1477 12.3496 12.0977H11.5996C11.3996 12.0977 11.2496 12.2477 11.1995 12.4977V13.6477C9.69953 13.8477 8.74961 14.8477 8.74961 16.0977C8.74961 17.7477 9.74957 18.3977 11.8496 18.6477C13.2496 18.8977 13.6996 19.1977 13.6996 19.9977C13.6996 20.7978 12.9995 21.3477 12.0496 21.3477C10.7495 21.3477 10.2995 20.7977 10.1495 20.0477C10.0996 19.8477 9.94961 19.7477 9.79961 19.7477H8.94953C8.74961 19.7477 8.59961 19.8977 8.59961 20.0977V20.1477C8.79953 21.3977 9.59957 22.2977 11.2496 22.5477V23.7477C11.2496 23.9477 11.3996 24.0977 11.6495 24.1477H12.3995C12.5996 24.1477 12.7496 23.9977 12.7996 23.7477V22.5477C14.2996 22.2977 15.2996 21.2477 15.2996 19.8977Z" fill="white"/>
<path d="M9.45 25.1499C5.55 23.75 3.54996 19.4 5.00004 15.5499C5.75004 13.4499 7.40004 11.85 9.45 11.1C9.65004 11 9.75 10.85 9.75 10.5999V9.89996C9.75 9.69992 9.65004 9.54992 9.45 9.5C9.39996 9.5 9.3 9.5 9.24996 9.54992C4.5 11.0499 1.89996 16.1 3.39996 20.85C4.29996 23.6499 6.45 25.8 9.24996 26.7C9.45 26.7999 9.65004 26.7 9.69996 26.4999C9.75 26.45 9.75 26.4 9.75 26.3V25.5999C9.75 25.4499 9.6 25.25 9.45 25.1499ZM14.75 9.54992C14.55 9.44996 14.35 9.54992 14.3 9.74996C14.25 9.8 14.25 9.84992 14.25 9.95V10.65C14.25 10.85 14.4 11.0499 14.55 11.15C18.45 12.5499 20.45 16.8999 19 20.75C18.25 22.85 16.6 24.45 14.55 25.2C14.35 25.2999 14.25 25.4499 14.25 25.7V26.4C14.25 26.6 14.35 26.75 14.55 26.7999C14.6 26.7999 14.7 26.7999 14.75 26.75C19.5 25.25 22.1 20.1999 20.6 15.45C19.7 12.6 17.5 10.4499 14.75 9.54992Z" fill="white"/>
</g>
<circle cx="19.9238" cy="7" r="7" fill="#8247E5"/>
<path d="M22.0441 8.58808L24.0799 7.41257C24.1878 7.35012 24.2545 7.23433 24.2545 7.11005V4.75901C24.2545 4.63473 24.1878 4.51894 24.0799 4.4565L22.0441 3.28098C21.9362 3.21854 21.8023 3.21914 21.6949 3.28098L19.6592 4.4565C19.5513 4.51894 19.4846 4.63473 19.4846 4.75901V8.96032L18.0569 9.78421L16.6291 8.96032V7.31193L18.0569 6.48804L18.9984 7.03184V5.92604L18.2315 5.48288C18.1787 5.45256 18.1181 5.43619 18.0569 5.43619C17.9956 5.43619 17.935 5.45256 17.8823 5.48288L15.8465 6.65839C15.7386 6.72084 15.6719 6.83663 15.6719 6.96091V9.31194C15.6719 9.43622 15.7386 9.55202 15.8465 9.61446L17.8823 10.79C17.9902 10.8518 18.1235 10.8518 18.2315 10.79L20.2672 9.61446C20.3751 9.55202 20.4418 9.43622 20.4418 9.31194V5.11003L20.4673 5.09548L21.8689 4.28614L23.2967 5.11003V6.75842L21.8689 7.58231L20.9287 7.03972V8.14552L21.6943 8.58747C21.8023 8.64931 21.9362 8.64931 22.0435 8.58747L22.0441 8.58808Z" fill="white"/>
<defs>
<clipPath id="clip0_4861_16087">
<rect width="24" height="24" fill="white" transform="translate(0 6)"/>
</clipPath>
</defs>
</svg>
