<svg width="42" height="46" viewBox="0 0 42 46" fill="none" xmlns="http://www.w3.org/2000/svg">
<path d="M19.6395 45.2711C30.2092 45.2711 38.7125 36.7678 38.7125 26.1981C38.7125 15.6283 30.2092 7.125 19.6395 7.125C9.06975 7.125 0.566406 15.6283 0.566406 26.1981C0.566406 36.7678 9.06975 45.2711 19.6395 45.2711Z" fill="#2775CA"/>
<path d="M24.8873 29.2178C24.8873 26.4364 23.2184 25.4827 19.8807 25.0854C17.4965 24.7675 17.0197 24.1318 17.0197 23.0191C17.0197 21.9063 17.8145 21.1913 19.4038 21.1913C20.8343 21.1913 21.6291 21.6681 22.0264 22.8602C22.1059 23.0986 22.3443 23.2575 22.5827 23.2575H23.8542C24.1721 23.2575 24.4105 23.0191 24.4105 22.7013V22.6218C24.0926 20.8733 22.6621 19.5224 20.8343 19.3635V17.4562C20.8343 17.1383 20.5959 16.8998 20.1986 16.8203H19.0065C18.6886 16.8203 18.4502 17.0587 18.3707 17.4562V19.284C15.9865 19.6019 14.4767 21.1913 14.4767 23.1781C14.4767 25.8007 16.0661 26.8337 19.4038 27.2311C21.6291 27.6284 22.3443 28.1053 22.3443 29.3769C22.3443 30.6485 21.2316 31.5226 19.7218 31.5226C17.6554 31.5226 16.9402 30.6483 16.7018 29.4562C16.6224 29.1385 16.384 28.9794 16.1456 28.9794H14.7945C14.4767 28.9794 14.2383 29.2178 14.2383 29.5357V29.6153C14.556 31.6019 15.8276 33.0324 18.4502 33.4299V35.3372C18.4502 35.655 18.6886 35.8934 19.0859 35.9729H20.278C20.5959 35.9729 20.8343 35.7345 20.9139 35.3372V33.4299C23.298 33.0324 24.8873 31.3635 24.8873 29.2178Z" fill="white"/>
<path d="M15.5913 37.5618C9.39261 35.3367 6.2137 28.4228 8.51849 22.3034C9.71055 18.9656 12.3331 16.4226 15.5913 15.2305C15.9093 15.0716 16.0682 14.8332 16.0682 14.4357V13.3232C16.0682 13.0053 15.9093 12.7668 15.5913 12.6875C15.5118 12.6875 15.3529 12.6875 15.2734 12.7668C7.72371 15.151 3.59116 23.1777 5.97529 30.7274C7.40577 35.1777 10.8231 38.595 15.2734 40.0255C15.5913 40.1844 15.9093 40.0255 15.9886 39.7075C16.0682 39.6282 16.0682 39.5487 16.0682 39.3898V38.277C16.0682 38.0386 15.8298 37.7209 15.5913 37.5618ZM24.0153 12.7668C23.6974 12.608 23.3794 12.7668 23.3001 13.0848C23.2206 13.1643 23.2206 13.2437 23.2206 13.4027V14.5153C23.2206 14.8332 23.459 15.151 23.6974 15.31C29.8961 17.5351 33.075 24.4491 30.7703 30.5685C29.5782 33.9063 26.9556 36.4493 23.6974 37.6413C23.3794 37.8002 23.2206 38.0386 23.2206 38.4361V39.5487C23.2206 39.8666 23.3794 40.105 23.6974 40.1844C23.7769 40.1844 23.9358 40.1844 24.0153 40.105C31.565 37.7209 35.6976 29.6942 33.3135 22.1445C31.883 17.6146 28.3861 14.1973 24.0153 12.7668Z" fill="white"/>
<path d="M31.3548 20.1275C36.861 20.1275 41.3248 15.6638 41.3248 10.1575C41.3248 4.65122 36.861 0.1875 31.3548 0.1875C25.8485 0.1875 21.3848 4.65122 21.3848 10.1575C21.3848 15.6638 25.8485 20.1275 31.3548 20.1275Z" fill="#0052FF"/>
<path d="M31.3945 17.0865C35.2587 17.0865 38.3912 13.9594 38.3912 10.1019C38.3912 6.24435 35.2587 3.11719 31.3945 3.11719C27.7284 3.11719 24.7207 5.93201 24.422 9.51479H33.6702V10.6889H24.4219C24.7206 14.2717 27.7284 17.0865 31.3945 17.0865Z" fill="white"/>
</svg>
