<svg width="27" height="30" viewBox="0 0 27 30" fill="none" xmlns="http://www.w3.org/2000/svg">
<g clip-path="url(#clip0_4861_16086)">
<path d="M12 30C18.65 30 24 24.65 24 18C24 11.35 18.65 6 12 6C5.34996 6 0 11.35 0 18C0 24.65 5.34996 30 12 30Z" fill="#2775CA"/>
<path d="M15.2996 19.8977C15.2996 18.1477 14.2496 17.5477 12.1496 17.2977C10.6496 17.0977 10.3496 16.6977 10.3496 15.9977C10.3496 15.2976 10.8496 14.8477 11.8496 14.8477C12.7496 14.8477 13.2496 15.1477 13.4996 15.8977C13.5496 16.0477 13.6996 16.1477 13.8496 16.1477H14.6495C14.8496 16.1477 14.9996 15.9977 14.9996 15.7977V15.7477C14.7995 14.6477 13.8995 13.7977 12.7496 13.6977V12.4977C12.7496 12.2977 12.5996 12.1477 12.3496 12.0977H11.5996C11.3996 12.0977 11.2496 12.2477 11.1995 12.4977V13.6477C9.69953 13.8477 8.74961 14.8477 8.74961 16.0977C8.74961 17.7477 9.74957 18.3977 11.8496 18.6477C13.2496 18.8977 13.6996 19.1977 13.6996 19.9977C13.6996 20.7978 12.9995 21.3477 12.0496 21.3477C10.7495 21.3477 10.2995 20.7977 10.1495 20.0477C10.0996 19.8477 9.94961 19.7477 9.79961 19.7477H8.94953C8.74961 19.7477 8.59961 19.8977 8.59961 20.0977V20.1477C8.79953 21.3977 9.59957 22.2977 11.2496 22.5477V23.7477C11.2496 23.9477 11.3996 24.0977 11.6495 24.1477H12.3995C12.5996 24.1477 12.7496 23.9977 12.7996 23.7477V22.5477C14.2996 22.2977 15.2996 21.2477 15.2996 19.8977Z" fill="white"/>
<path d="M9.45 25.1499C5.55 23.75 3.54996 19.4 5.00004 15.5499C5.75004 13.4499 7.40004 11.85 9.45 11.1C9.65004 11 9.75 10.85 9.75 10.5999V9.89996C9.75 9.69992 9.65004 9.54992 9.45 9.5C9.39996 9.5 9.3 9.5 9.24996 9.54992C4.5 11.0499 1.89996 16.1 3.39996 20.85C4.29996 23.6499 6.45 25.8 9.24996 26.7C9.45 26.7999 9.65004 26.7 9.69996 26.4999C9.75 26.45 9.75 26.4 9.75 26.3V25.5999C9.75 25.4499 9.6 25.25 9.45 25.1499ZM14.75 9.54992C14.55 9.44996 14.35 9.54992 14.3 9.74996C14.25 9.8 14.25 9.84992 14.25 9.95V10.65C14.25 10.85 14.4 11.0499 14.55 11.15C18.45 12.5499 20.45 16.8999 19 20.75C18.25 22.85 16.6 24.45 14.55 25.2C14.35 25.2999 14.25 25.4499 14.25 25.7V26.4C14.25 26.6 14.35 26.75 14.55 26.7999C14.6 26.7999 14.7 26.7999 14.75 26.75C19.5 25.25 22.1 20.1999 20.6 15.45C19.7 12.6 17.5 10.4499 14.75 9.54992Z" fill="white"/>
</g>
<circle cx="19.9238" cy="7" r="7" fill="#0C0E10"/>
<path d="M22.7358 4.06115L21.7046 4.58688L16.7252 7.12491C16.7089 6.9962 16.701 6.86654 16.7014 6.73674C16.704 6.21885 16.8414 5.71022 17.0998 5.26123C17.3582 4.81224 17.7288 4.43848 18.1748 4.17697C18.6208 3.91545 19.1267 3.77526 19.6425 3.77028C20.1583 3.76529 20.666 3.89569 21.1154 4.14855L21.7056 3.84761L21.7936 3.80265C21.2555 3.40897 20.619 3.17269 19.9544 3.11993C19.2898 3.06716 18.6231 3.19996 18.0279 3.50365C17.4327 3.80734 16.9323 4.2701 16.5818 4.84077C16.2314 5.41145 16.0446 6.06782 16.0422 6.73734C16.0418 6.82981 16.045 6.92192 16.0516 7.01367C16.0609 7.1436 16.0317 7.2735 15.9677 7.38704C15.9037 7.50057 15.8077 7.59267 15.6919 7.65174L15.3807 7.81054L15.3779 8.55236L16.2942 8.085L16.5909 7.93344L16.8833 7.78442L22.1326 5.10789L22.7225 4.80731L23.9417 4.1855L23.9445 3.44404L22.7358 4.06115Z" fill="white"/>
<path d="M23.9418 4.92429L17.1817 8.36876L16.5918 8.67006L15.378 9.28898L15.3752 10.0301L16.5807 9.4155L17.6118 8.88977L22.5963 6.34811C22.6126 6.47767 22.6206 6.60818 22.6201 6.73883C22.6178 7.25732 22.4805 7.76661 22.2218 8.21614C21.9632 8.66568 21.5921 9.03981 21.1454 9.30141C20.6988 9.56301 20.1921 9.70297 19.6758 9.70739C19.1594 9.71182 18.6513 9.58057 18.2018 9.32665L18.1656 9.34587L17.5257 9.67219C18.0637 10.0659 18.7001 10.3022 19.3646 10.3551C20.0291 10.408 20.6957 10.2754 21.2909 9.97191C21.8861 9.66842 22.3866 9.20589 22.7372 8.63542C23.0878 8.06495 23.2748 7.40874 23.2775 6.73931C23.2779 6.646 23.2746 6.55268 23.2681 6.46044C23.2588 6.33056 23.288 6.2007 23.3519 6.08718C23.4158 5.97366 23.5117 5.88153 23.6274 5.82238L23.939 5.66357L23.9418 4.92429Z" fill="white"/>
<defs>
<clipPath id="clip0_4861_16086">
<rect width="24" height="24" fill="white" transform="translate(0 6)"/>
</clipPath>
</defs>
</svg>
