<svg width="27" height="30" viewBox="0 0 27 30" fill="none" xmlns="http://www.w3.org/2000/svg">
<g clip-path="url(#clip0_4861_16088)">
<path d="M12 30C18.65 30 24 24.65 24 18C24 11.35 18.65 6 12 6C5.34996 6 0 11.35 0 18C0 24.65 5.34996 30 12 30Z" fill="#2775CA"/>
<path d="M15.2996 19.8977C15.2996 18.1477 14.2496 17.5477 12.1496 17.2977C10.6496 17.0977 10.3496 16.6977 10.3496 15.9977C10.3496 15.2976 10.8496 14.8477 11.8496 14.8477C12.7496 14.8477 13.2496 15.1477 13.4996 15.8977C13.5496 16.0477 13.6996 16.1477 13.8496 16.1477H14.6495C14.8496 16.1477 14.9996 15.9977 14.9996 15.7977V15.7477C14.7995 14.6477 13.8995 13.7977 12.7496 13.6977V12.4977C12.7496 12.2977 12.5996 12.1477 12.3496 12.0977H11.5996C11.3996 12.0977 11.2496 12.2477 11.1995 12.4977V13.6477C9.69953 13.8477 8.74961 14.8477 8.74961 16.0977C8.74961 17.7477 9.74957 18.3977 11.8496 18.6477C13.2496 18.8977 13.6996 19.1977 13.6996 19.9977C13.6996 20.7978 12.9995 21.3477 12.0496 21.3477C10.7495 21.3477 10.2995 20.7977 10.1495 20.0477C10.0996 19.8477 9.94961 19.7477 9.79961 19.7477H8.94953C8.74961 19.7477 8.59961 19.8977 8.59961 20.0977V20.1477C8.79953 21.3977 9.59957 22.2977 11.2496 22.5477V23.7477C11.2496 23.9477 11.3996 24.0977 11.6495 24.1477H12.3995C12.5996 24.1477 12.7496 23.9977 12.7996 23.7477V22.5477C14.2996 22.2977 15.2996 21.2477 15.2996 19.8977Z" fill="white"/>
<path d="M9.45 25.1499C5.55 23.75 3.54996 19.4 5.00004 15.5499C5.75004 13.4499 7.40004 11.85 9.45 11.1C9.65004 11 9.75 10.85 9.75 10.5999V9.89996C9.75 9.69992 9.65004 9.54992 9.45 9.5C9.39996 9.5 9.3 9.5 9.24996 9.54992C4.5 11.0499 1.89996 16.1 3.39996 20.85C4.29996 23.6499 6.45 25.8 9.24996 26.7C9.45 26.7999 9.65004 26.7 9.69996 26.4999C9.75 26.45 9.75 26.4 9.75 26.3V25.5999C9.75 25.4499 9.6 25.25 9.45 25.1499ZM14.75 9.54992C14.55 9.44996 14.35 9.54992 14.3 9.74996C14.25 9.8 14.25 9.84992 14.25 9.95V10.65C14.25 10.85 14.4 11.0499 14.55 11.15C18.45 12.5499 20.45 16.8999 19 20.75C18.25 22.85 16.6 24.45 14.55 25.2C14.35 25.2999 14.25 25.4499 14.25 25.7V26.4C14.25 26.6 14.35 26.75 14.55 26.7999C14.6 26.7999 14.7 26.7999 14.75 26.75C19.5 25.25 22.1 20.1999 20.6 15.45C19.7 12.6 17.5 10.4499 14.75 9.54992Z" fill="white"/>
</g>
<circle cx="19.9238" cy="7" r="7" fill="#0C0E10"/>
<path d="M23.309 8.53862L22.2565 9.66713C22.2337 9.69165 22.2061 9.71121 22.1755 9.72459C22.1448 9.73798 22.1117 9.74491 22.0783 9.74494H17.0891C17.0653 9.74493 17.042 9.73798 17.0221 9.72494C17.0022 9.7119 16.9865 9.69334 16.977 9.67153C16.9675 9.64972 16.9645 9.62561 16.9685 9.60215C16.9725 9.57869 16.9832 9.55689 16.9994 9.53943L18.0507 8.41092C18.0735 8.38641 18.101 8.36685 18.1317 8.35346C18.1623 8.34008 18.1954 8.33315 18.2289 8.33311H23.2181C23.2421 8.33262 23.2657 8.33924 23.286 8.35214C23.3062 8.36504 23.3223 8.38364 23.3319 8.40561C23.3417 8.42758 23.3447 8.45193 23.3406 8.4756C23.3365 8.49927 23.3255 8.5212 23.309 8.53862ZM22.2565 6.26556C22.2336 6.24116 22.206 6.22168 22.1754 6.2083C22.1448 6.19493 22.1117 6.18793 22.0783 6.18776H17.0891C17.0653 6.18777 17.042 6.19472 17.0221 6.20777C17.0022 6.2208 16.9865 6.23936 16.977 6.26117C16.9675 6.28298 16.9645 6.30709 16.9685 6.33055C16.9725 6.35402 16.9832 6.37581 16.9994 6.39327L18.0507 7.52237C18.0735 7.54677 18.1011 7.56626 18.1318 7.57964C18.1624 7.59301 18.1955 7.6 18.2289 7.60018H23.2181C23.2418 7.60005 23.265 7.59301 23.2848 7.57993C23.3047 7.56685 23.3202 7.54828 23.3297 7.5265C23.3391 7.50471 23.342 7.48064 23.338 7.45724C23.334 7.43383 23.3233 7.41209 23.3072 7.39467L22.2565 6.26556ZM17.0891 5.45482H22.0783C22.1117 5.45479 22.1448 5.44786 22.1755 5.43447C22.2061 5.42109 22.2337 5.40152 22.2565 5.37701L23.309 4.2485C23.3255 4.23107 23.3365 4.20914 23.3406 4.18547C23.3447 4.1618 23.3417 4.13745 23.3319 4.11549C23.3223 4.09352 23.3062 4.07491 23.286 4.06202C23.2657 4.04912 23.2421 4.0425 23.2181 4.04299H18.2289C18.1954 4.04303 18.1623 4.04996 18.1317 4.06334C18.101 4.07673 18.0735 4.09629 18.0507 4.1208L16.9994 5.24931C16.9832 5.26677 16.9725 5.28856 16.9685 5.31203C16.9645 5.33549 16.9675 5.3596 16.977 5.38141C16.9865 5.40322 17.0022 5.42178 17.0221 5.43481C17.042 5.44786 17.0653 5.45481 17.0891 5.45482Z" fill="white"/>
<defs>
<clipPath id="clip0_4861_16088">
<rect width="24" height="24" fill="white" transform="translate(0 6)"/>
</clipPath>
</defs>
</svg>
