<svg width="39" height="40" viewBox="0 0 39 40" fill="none" xmlns="http://www.w3.org/2000/svg">
<path d="M17.8368 40.0007C27.7214 40.0007 35.6735 32.0485 35.6735 22.1639C35.6735 12.2793 27.7214 4.32715 17.8368 4.32715C7.95216 4.32715 0 12.2793 0 22.1639C0 32.0485 7.95216 40.0007 17.8368 40.0007Z" fill="#2775CA"/>
<path d="M22.7479 24.9884C22.7479 22.3873 21.1871 21.4955 18.0657 21.1239C15.8361 20.8266 15.3902 20.2321 15.3902 19.1915C15.3902 18.1509 16.1335 17.4822 17.6198 17.4822C18.9576 17.4822 19.7008 17.9281 20.0723 19.0429C20.1467 19.2659 20.3697 19.4144 20.5926 19.4144H21.7816C22.079 19.4144 22.3019 19.1915 22.3019 18.8943V18.8199C22.0046 17.1848 20.6668 15.9215 18.9576 15.7729V13.9892C18.9576 13.6919 18.7346 13.4689 18.3631 13.3945H17.2483C16.9509 13.3945 16.728 13.6175 16.6536 13.9892V15.6985C14.424 15.9958 13.012 17.4822 13.012 19.3402C13.012 21.7928 14.4984 22.7588 17.6198 23.1306C19.7008 23.5021 20.3697 23.948 20.3697 25.1372C20.3697 26.3264 19.3291 27.1438 17.9171 27.1438C15.9847 27.1438 15.3158 26.3262 15.0929 25.2114C15.0187 24.9142 14.7957 24.7655 14.5727 24.7655H13.3092C13.012 24.7655 12.7891 24.9884 12.7891 25.2858V25.3601C13.0862 27.218 14.2754 28.5558 16.728 28.9275V30.7112C16.728 31.0083 16.9509 31.2313 17.3225 31.3057H18.4373C18.7346 31.3057 18.9576 31.0827 19.0319 30.7112V28.9275C21.2615 28.5558 22.7479 26.9951 22.7479 24.9884Z" fill="white"/>
<path d="M14.0532 32.7942C8.25629 30.7134 5.28343 24.2476 7.43883 18.5248C8.55362 15.4034 11.0062 13.0252 14.0532 11.9104C14.3506 11.7618 14.4992 11.5389 14.4992 11.1671V10.1267C14.4992 9.82939 14.3506 9.60643 14.0532 9.53223C13.9789 9.53223 13.8303 9.53223 13.7559 9.60643C6.69557 11.836 2.83088 19.3424 5.06047 26.4028C6.39823 30.5646 9.59404 33.7604 13.7559 35.0982C14.0532 35.2468 14.3506 35.0982 14.4248 34.8009C14.4992 34.7267 14.4992 34.6523 14.4992 34.5037V33.4631C14.4992 33.2401 14.2762 32.943 14.0532 32.7942ZM21.9312 9.60643C21.6339 9.45785 21.3365 9.60643 21.2623 9.90377C21.1879 9.97815 21.1879 10.0523 21.1879 10.2011V11.2415C21.1879 11.5389 21.4109 11.836 21.6339 11.9848C27.4308 14.0656 30.4037 20.5314 28.2483 26.2542C27.1335 29.3756 24.6809 31.7538 21.6339 32.8686C21.3365 33.0172 21.1879 33.2401 21.1879 33.6119V34.6523C21.1879 34.9496 21.3365 35.1726 21.6339 35.2468C21.7082 35.2468 21.8568 35.2468 21.9312 35.1726C28.9915 32.943 32.8562 25.4366 30.6266 18.3762C29.2889 14.14 26.0187 10.9442 21.9312 9.60643Z" fill="white"/>
<path d="M29.325 18.65C34.4751 18.65 38.65 14.4751 38.65 9.325C38.65 4.17494 34.4751 0 29.325 0C24.1749 0 20 4.17494 20 9.325C20 14.4751 24.1749 18.65 29.325 18.65Z" fill="black"/>
<path d="M33.5779 4.10156H35.3175L31.6957 7.85693C30.3842 9.21688 28.2581 9.21688 26.9496 7.85693L23.3271 4.10156H25.0667L27.8172 6.95427C28.649 7.8144 29.9941 7.8144 30.8236 6.95427L33.5779 4.10156ZM25.0451 14.5485H23.3047L26.9496 10.7678C28.2611 9.40786 30.3872 9.40786 31.6987 10.7678L35.3436 14.5485H33.6032L30.8296 11.6705C29.9978 10.8103 28.6528 10.8103 27.8232 11.6705L25.0451 14.5485Z" fill="white"/>
</svg>
