<svg width="41" height="43" viewBox="0 0 41 43" fill="none" xmlns="http://www.w3.org/2000/svg">
<path d="M18.6578 42.3104C28.9974 42.3104 37.3156 33.943 37.3156 23.5422C37.3156 13.1415 28.9974 4.77405 18.6578 4.77405C8.31821 4.77405 1.52588e-05 13.1415 1.52588e-05 23.5422C1.52588e-05 33.943 8.31821 42.3104 18.6578 42.3104Z" fill="#50AF95"/>
<path fill-rule="evenodd" clip-rule="evenodd" d="M21.2682 24.5486C21.1441 24.5578 20.503 24.5959 19.0727 24.5959C17.9352 24.5959 17.1275 24.562 16.8442 24.5486C12.448 24.3561 9.1667 23.5946 9.1667 22.6828C9.1667 21.771 12.448 21.0105 16.8442 20.8149V23.7901C17.1317 23.8107 17.9548 23.8591 19.0924 23.8591C20.4575 23.8591 21.141 23.8025 21.2641 23.7911V20.817C25.6509 21.0115 28.925 21.773 28.925 22.6828C28.925 23.5925 25.652 24.3541 21.2641 24.5475L21.2682 24.5486ZM21.2682 20.5093V17.847H27.3903V13.7871H10.722V17.847H16.8431V20.5083C11.8679 20.7357 8.12635 21.7164 8.12635 22.8917C8.12635 24.0669 11.8679 25.0467 16.8431 25.2751V33.8065H21.2672V25.272C26.2311 25.0446 29.9664 24.0649 29.9664 22.8907C29.9664 21.7164 26.2342 20.7367 21.2672 20.5083L21.2682 20.5093Z" fill="white"/>
<circle cx="30.5" cy="10.5" r="10.5" fill="#0C0E10"/>
<path d="M35.5775 12.8077L33.9988 14.5005C33.9646 14.5372 33.9233 14.5666 33.8773 14.5866C33.8313 14.6067 33.7817 14.6171 33.7315 14.6172H26.2477C26.212 14.6171 26.1771 14.6067 26.1472 14.5872C26.1174 14.5676 26.0939 14.5398 26.0796 14.507C26.0653 14.4743 26.0609 14.4382 26.0669 14.403C26.0728 14.3678 26.0889 14.3351 26.1132 14.3089L27.6901 12.6161C27.7243 12.5794 27.7656 12.55 27.8116 12.53C27.8576 12.5099 27.9072 12.4995 27.9574 12.4994H35.4412C35.4772 12.4987 35.5127 12.5086 35.543 12.528C35.5734 12.5473 35.5975 12.5752 35.612 12.6082C35.6266 12.6411 35.6311 12.6776 35.6249 12.7132C35.6188 12.7487 35.6023 12.7815 35.5775 12.8077ZM33.9988 9.3981C33.9645 9.3615 33.9231 9.33228 33.8772 9.31221C33.8312 9.29214 33.7817 9.28166 33.7315 9.2814H26.2477C26.212 9.28142 26.1771 9.29184 26.1472 9.31141C26.1174 9.33096 26.0939 9.3588 26.0796 9.39152C26.0653 9.42423 26.0609 9.4604 26.0669 9.49559C26.0728 9.53078 26.0889 9.56348 26.1132 9.58966L27.6901 11.2833C27.7244 11.3199 27.7658 11.3491 27.8117 11.3692C27.8577 11.3893 27.9073 11.3998 27.9574 11.4H35.4412C35.4769 11.3998 35.5116 11.3893 35.5414 11.3697C35.5711 11.35 35.5945 11.3222 35.6086 11.2895C35.6228 11.2568 35.6271 11.2207 35.6211 11.1856C35.6151 11.1505 35.5991 11.1179 35.5749 11.0918L33.9988 9.3981ZM26.2477 8.18198H33.7315C33.7817 8.18194 33.8313 8.17154 33.8773 8.15146C33.9233 8.13139 33.9646 8.10204 33.9988 8.06527L35.5775 6.37251C35.6023 6.34636 35.6188 6.31347 35.6249 6.27797C35.6311 6.24246 35.6266 6.20594 35.612 6.17299C35.5975 6.14003 35.5734 6.11213 35.543 6.09278C35.5127 6.07343 35.4772 6.0635 35.4412 6.06425H27.9574C27.9072 6.0643 27.8576 6.07469 27.8116 6.09477C27.7656 6.11485 27.7243 6.14419 27.6901 6.18096L26.1132 7.87372C26.0889 7.89991 26.0728 7.9326 26.0669 7.96779C26.0609 8.00299 26.0653 8.03915 26.0796 8.07186C26.0939 8.10458 26.1174 8.13242 26.1472 8.15198C26.1771 8.17154 26.212 8.18197 26.2477 8.18198Z" fill="white"/>
</svg>
