<svg width="27" height="30" viewBox="0 0 27 30" fill="none" xmlns="http://www.w3.org/2000/svg">
<path d="M12 29.142C18.65 29.142 24 23.7604 24 17.071C24 10.3816 18.65 5 12 5C5.34996 5 0 10.3816 0 17.071C0 23.7604 5.34996 29.142 12 29.142Z" fill="#50AF95"/>
<path fill-rule="evenodd" clip-rule="evenodd" d="M13.6789 17.7183C13.5991 17.7242 13.1867 17.7487 12.2669 17.7487C11.5352 17.7487 11.0158 17.7269 10.8335 17.7183C8.00611 17.5945 5.89568 17.1047 5.89568 16.5182C5.89568 15.9318 8.00611 15.4427 10.8335 15.3169V17.2304C11.0184 17.2437 11.5479 17.2748 12.2795 17.2748C13.1575 17.2748 13.5971 17.2384 13.6763 17.2311V15.3182C16.4977 15.4433 18.6035 15.9331 18.6035 16.5182C18.6035 17.1034 16.4984 17.5932 13.6763 17.7176L13.6789 17.7183ZM13.6789 15.1203V13.408H17.6165V10.7969H6.89602V13.408H10.8329V15.1197C7.63297 15.266 5.22656 15.8967 5.22656 16.6526C5.22656 17.4085 7.63297 18.0386 10.8329 18.1855V23.6726H13.6783V18.1836C16.8709 18.0373 19.2733 17.4072 19.2733 16.652C19.2733 15.8967 16.8729 15.2666 13.6783 15.1197L13.6789 15.1203Z" fill="white"/>
<circle cx="20" cy="7" r="7" fill="#8247E5"/>
<path d="M22.1203 8.58808L24.1561 7.41257C24.264 7.35012 24.3307 7.23433 24.3307 7.11005V4.75901C24.3307 4.63473 24.264 4.51894 24.1561 4.4565L22.1203 3.28098C22.0124 3.21854 21.8784 3.21914 21.7711 3.28098L19.7353 4.4565C19.6274 4.51894 19.5607 4.63473 19.5607 4.75901V8.96032L18.133 9.78421L16.7053 8.96032V7.31193L18.133 6.48804L19.0745 7.03184V5.92604L18.3076 5.48288C18.2549 5.45256 18.1943 5.43619 18.133 5.43619C18.0718 5.43619 18.0112 5.45256 17.9584 5.48288L15.9226 6.65839C15.8147 6.72084 15.748 6.83663 15.748 6.96091V9.31194C15.748 9.43622 15.8147 9.55202 15.9226 9.61446L17.9584 10.79C18.0663 10.8518 18.1997 10.8518 18.3076 10.79L20.3434 9.61446C20.4513 9.55202 20.518 9.43622 20.518 9.31194V5.11003L20.5435 5.09548L21.9451 4.28614L23.3728 5.11003V6.75842L21.9451 7.58231L21.0048 7.03972V8.14552L21.7705 8.58747C21.8784 8.64931 22.0124 8.64931 22.1197 8.58747L22.1203 8.58808Z" fill="white"/>
</svg>
