<svg width="30" height="30" viewBox="0 0 30 30" fill="none" xmlns="http://www.w3.org/2000/svg">
<mask id="mask0_5324_18431" style="mask-type:alpha" maskUnits="userSpaceOnUse" x="0" y="0" width="30" height="30">
<rect width="30" height="30" fill="#D9D9D9"/>
</mask>
<g mask="url(#mask0_5324_18431)">
<mask id="mask1_5324_18431" style="mask-type:alpha" maskUnits="userSpaceOnUse" x="0" y="0" width="30" height="30">
<rect width="30" height="30" fill="#D9D9D9"/>
</mask>
<g mask="url(#mask1_5324_18431)">
<path d="M23.3958 22.9489C22.817 22.9501 22.2436 22.8368 21.7088 22.6154C21.174 22.394 20.6884 22.0689 20.2799 21.6589L15.7795 17.1589C15.6202 17.0075 15.4089 16.9231 15.1891 16.9231C14.9694 16.9231 14.758 17.0075 14.5987 17.1589L10.0813 21.676C9.6729 22.0862 9.18726 22.4115 8.65243 22.6329C8.1176 22.8543 7.54419 22.9675 6.96533 22.966H6.07812L11.7785 28.666C13.5572 30.4446 16.4439 30.4446 18.2226 28.666L23.938 22.9489H23.3958ZM6.96533 7.03172C8.14399 7.03172 9.24978 7.49029 10.0813 8.32172L14.5987 12.8389C14.6764 12.9166 14.7686 12.9783 14.87 13.0204C14.9715 13.0625 15.0803 13.0841 15.1902 13.0841C15.3001 13.0841 15.4089 13.0625 15.5104 13.0204C15.6119 12.9783 15.7041 12.9166 15.7817 12.8389L20.282 8.33886C20.6901 7.92889 21.1754 7.60381 21.7098 7.3824C22.2443 7.16099 22.8173 7.04763 23.3958 7.04886H23.938L18.2226 1.33386C17.3678 0.479772 16.2089 0 15.0005 0C13.7922 0 12.6333 0.479772 11.7785 1.33386L6.07812 7.03386L6.96533 7.03172Z" fill="#1565D8"/>
<path d="M28.666 11.7779L25.2114 8.32359C25.1339 8.35544 25.051 8.37217 24.9671 8.37288H23.3963C22.5841 8.37288 21.7891 8.70288 21.2169 9.27717L16.7166 13.7772C16.5164 13.9783 16.2785 14.138 16.0165 14.2469C15.7544 14.3558 15.4734 14.4119 15.1897 14.4119C14.9059 14.4119 14.6249 14.3558 14.3629 14.2469C14.1008 14.138 13.8629 13.9783 13.6628 13.7772L9.1453 9.25788C8.56572 8.68072 7.78168 8.35573 6.96371 8.35359H5.035C4.95505 8.35296 4.87588 8.33771 4.80141 8.30859L1.33402 11.7779C-0.444675 13.5565 -0.444675 16.4429 1.33402 18.2236L4.80141 21.6907C4.87506 21.6611 4.95349 21.6451 5.03286 21.6436H6.96371C7.77806 21.6436 8.57097 21.3157 9.1453 20.7415L13.6606 16.2222C14.0726 15.8299 14.6197 15.6111 15.1886 15.6111C15.7575 15.6111 16.3046 15.8299 16.7166 16.2222L21.2169 20.7222C21.7891 21.2965 22.5841 21.6243 23.3963 21.6243H24.9671C25.0529 21.6243 25.1364 21.6457 25.2114 21.6757L28.666 18.2215C30.4447 16.4429 30.4447 13.5565 28.666 11.7779Z" fill="#1565D8"/>
</g>
</g>
</svg>
